<svg width="14" height="16" viewBox="0 0 14 16" fill="none" xmlns="http://www.w3.org/2000/svg">
<path d="M7 10.6667C6.8453 10.6667 6.69692 10.5965 6.58753 10.4714C6.47813 10.3464 6.41667 10.1769 6.41667 10V2.00004C6.41667 1.82323 6.47813 1.65366 6.58753 1.52864C6.69692 1.40361 6.8453 1.33337 7 1.33337C7.15471 1.33337 7.30309 1.40361 7.41248 1.52864C7.52188 1.65366 7.58334 1.82323 7.58334 2.00004V10C7.58334 10.1769 7.52188 10.3464 7.41248 10.4714C7.30309 10.5965 7.15471 10.6667 7 10.6667ZM2.91667 10V5.33337C2.91667 5.15656 2.85521 4.98699 2.74582 4.86197C2.63642 4.73695 2.48805 4.66671 2.33334 4.66671C2.17863 4.66671 2.03026 4.73695 1.92086 4.86197C1.81146 4.98699 1.75001 5.15656 1.75001 5.33337V10C1.75001 10.1769 1.81146 10.3464 1.92086 10.4714C2.03026 10.5965 2.17863 10.6667 2.33334 10.6667C2.48805 10.6667 2.63642 10.5965 2.74582 10.4714C2.85521 10.3464 2.91667 10.1769 2.91667 10ZM4.66667 7.33337C4.51196 7.33337 4.36359 7.40361 4.25419 7.52864C4.1448 7.65366 4.08334 7.82323 4.08334 8.00004V10C4.08334 10.1769 4.1448 10.3464 4.25419 10.4714C4.36359 10.5965 4.51196 10.6667 4.66667 10.6667C4.82138 10.6667 4.96975 10.5965 5.07915 10.4714C5.18855 10.3464 5.25 10.1769 5.25 10V8.00004C5.25 7.82323 5.18855 7.65366 5.07915 7.52864C4.96975 7.40361 4.82138 7.33337 4.66667 7.33337ZM9.33334 3.33337C9.17863 3.33337 9.03026 3.40361 8.92086 3.52864C8.81146 3.65366 8.75 3.82323 8.75 4.00004V10C8.75 10.1769 8.81146 10.3464 8.92086 10.4714C9.03026 10.5965 9.17863 10.6667 9.33334 10.6667C9.48805 10.6667 9.63642 10.5965 9.74582 10.4714C9.85521 10.3464 9.91667 10.1769 9.91667 10V4.00004C9.91667 3.82323 9.85521 3.65366 9.74582 3.52864C9.63642 3.40361 9.48805 3.33337 9.33334 3.33337ZM12.25 10V6.66671C12.25 6.4899 12.1885 6.32033 12.0792 6.1953C11.9698 6.07028 11.8214 6.00004 11.6667 6.00004C11.512 6.00004 11.3636 6.07028 11.2542 6.1953C11.1448 6.32033 11.0833 6.4899 11.0833 6.66671V10C11.0833 10.1769 11.1448 10.3464 11.2542 10.4714C11.3636 10.5965 11.512 10.6667 11.6667 10.6667C11.8214 10.6667 11.9698 10.5965 12.0792 10.4714C12.1885 10.3464 12.25 10.1769 12.25 10ZM1.16667 13.3334V14.6667H3.50001V13.3334L2.33334 12L1.16667 13.3334ZM5.83334 13.3334V14.6667H8.16667V13.3334L7 12L5.83334 13.3334ZM10.5 13.3334V14.6667H12.8333V13.3334L11.6667 12L10.5 13.3334Z" fill="#979797"/>
</svg>
