<svg width="14" height="13" viewBox="0 0 14 13" fill="none" xmlns="http://www.w3.org/2000/svg">
<path d="M0.999995 5.875H6.33333V0.875C6.33333 0.70924 6.40357 0.550268 6.52859 0.433058C6.65361 0.315848 6.82318 0.25 7 0.25C7.17681 0.25 7.34638 0.315848 7.4714 0.433058C7.59642 0.550268 7.66666 0.70924 7.66666 0.875V5.875H13C13.1768 5.875 13.3464 5.94085 13.4714 6.05806C13.5964 6.17527 13.6667 6.33424 13.6667 6.5C13.6667 6.66576 13.5964 6.82473 13.4714 6.94194C13.3464 7.05915 13.1768 7.125 13 7.125H7.66666V12.125C7.66666 12.2908 7.59642 12.4497 7.4714 12.5669C7.34638 12.6842 7.17681 12.75 7 12.75C6.82318 12.75 6.65361 12.6842 6.52859 12.5669C6.40357 12.4497 6.33333 12.2908 6.33333 12.125V7.125H0.999995C0.823184 7.125 0.653615 7.05915 0.52859 6.94194C0.403566 6.82473 0.333328 6.66576 0.333328 6.5C0.333328 6.33424 0.403566 6.17527 0.52859 6.05806C0.653615 5.94085 0.823184 5.875 0.999995 5.875V5.875Z" fill="white"/>
</svg>
