<svg width="20" height="20" viewBox="0 0 20 20" fill="none" xmlns="http://www.w3.org/2000/svg">
<rect width="19.3067" height="18.9167" transform="translate(0.559998 0.666626)" fill="black"/>
<path d="M6.20206 3.23902C6.46595 2.98046 6.88287 2.96322 7.16716 3.18731L7.22595 3.23902L13.9833 9.85986C14.2472 10.1184 14.2648 10.5269 14.0361 10.8055L13.9833 10.8631L7.22595 17.4839C6.94321 17.7609 6.4848 17.7609 6.20206 17.4839C5.93817 17.2253 5.92058 16.8168 6.14928 16.5383L6.20206 16.4807L12.4475 10.3615L6.20206 4.24223C5.93817 3.98367 5.92058 3.57517 6.14928 3.29662L6.20206 3.23902Z" fill="#FFBD5A"/>
<mask id="mask0_223_132" style="mask-type:luminance" maskUnits="userSpaceOnUse" x="5" y="3" width="10" height="15">
<path d="M6.20206 3.23902C6.46595 2.98046 6.88287 2.96322 7.16716 3.18731L7.22595 3.23902L13.9833 9.85986C14.2472 10.1184 14.2648 10.5269 14.0361 10.8055L13.9833 10.8631L7.22595 17.4839C6.94321 17.7609 6.4848 17.7609 6.20206 17.4839C5.93817 17.2253 5.92058 16.8168 6.14928 16.5383L6.20206 16.4807L12.4475 10.3615L6.20206 4.24223C5.93817 3.98367 5.92058 3.57517 6.14928 3.29662L6.20206 3.23902Z" fill="white"/>
</mask>
<g mask="url(#mask0_223_132)">
<rect x="0.559998" y="0.666626" width="19.3067" height="18.9167" fill="#C8C8C8"/>
</g>
</svg>
