<svg width="24" height="24" viewBox="0 0 24 24" fill="none" xmlns="http://www.w3.org/2000/svg">
<path d="M2.00048 2.99998L2.00048 21C2.0004 21.1705 2.04391 21.3381 2.12686 21.4871C2.20981 21.636 2.32947 21.7612 2.47445 21.8509C2.61943 21.9406 2.78493 21.9917 2.95524 21.9994C3.12554 22.0071 3.29498 21.9712 3.44748 21.895L21.4475 12.895C21.6025 12.8026 21.7308 12.6715 21.8199 12.5146C21.909 12.3577 21.9559 12.1804 21.9559 12C21.9559 11.8195 21.909 11.6422 21.8199 11.4853C21.7308 11.3284 21.6025 11.1974 21.4475 11.105L3.44748 2.10498C3.29498 2.02878 3.12554 1.99282 2.95524 2.00054C2.78493 2.00825 2.61943 2.05937 2.47445 2.14905C2.32947 2.23872 2.20981 2.36397 2.12686 2.5129C2.04391 2.66184 2.0004 2.8295 2.00048 2.99998ZM18.7645 12L4.00048 19.382L4.00048 4.61798L18.7645 12Z" fill="white"/>
</svg>
