<svg width="20" height="20" viewBox="0 0 20 20" fill="none" xmlns="http://www.w3.org/2000/svg">
<path d="M0.000480652 0.999978L0.000480652 19C0.000400543 19.1705 0.0439053 19.3381 0.12686 19.4871C0.209814 19.636 0.329466 19.7612 0.474449 19.8509C0.619432 19.9406 0.784935 19.9917 0.955236 19.9994C1.12554 20.0071 1.29498 19.9712 1.44748 19.895L19.4475 10.895C19.6025 10.8026 19.7308 10.6715 19.8199 10.5146C19.909 10.3577 19.9559 10.1804 19.9559 9.99998C19.9559 9.81955 19.909 9.64221 19.8199 9.48532C19.7308 9.32843 19.6025 9.19738 19.4475 9.10498L1.44748 0.104978C1.29498 0.0287753 1.12554 -0.00717704 0.955236 0.000535877C0.784935 0.00824879 0.619432 0.0593708 0.474449 0.149046C0.329466 0.238722 0.209814 0.363973 0.12686 0.512905C0.0439053 0.661836 0.000400543 0.829502 0.000480652 0.999978ZM16.7645 9.99998L2.00048 17.382L2.00048 2.61798L16.7645 9.99998Z" fill="white"/>
</svg>
