<svg width="172" height="175" viewBox="0 0 172 175" fill="none" xmlns="http://www.w3.org/2000/svg">
<path d="M86.1782 130.862C80.3101 130.862 74.4995 129.707 69.0781 127.461C63.6567 125.215 58.7307 121.924 54.5814 117.775C50.432 113.625 47.1406 108.699 44.8949 103.278C42.6493 97.8565 41.4935 92.0459 41.4935 86.1778C41.4935 80.3097 42.6493 74.4991 44.895 69.0777C47.1406 63.6563 50.432 58.7303 54.5814 54.581C58.7307 50.4316 63.6567 47.1402 69.0781 44.8946C74.4995 42.649 80.3101 41.4932 86.1782 41.4932C92.0462 41.4932 97.8568 42.649 103.278 44.8946C108.7 47.1402 113.626 50.4316 117.775 54.581C121.924 58.7303 125.216 63.6563 127.461 69.0777C129.707 74.4991 130.863 80.3097 130.863 86.1778C130.863 92.0459 129.707 97.8565 127.461 103.278C125.216 108.699 121.924 113.625 117.775 117.775C113.626 121.924 108.7 125.215 103.278 127.461C97.8568 129.707 92.0462 130.862 86.1782 130.862L86.1782 130.862Z" stroke="#313030" stroke-width="16"/>
<path d="M86.1775 109.584C83.1038 109.584 80.0601 108.979 77.2203 107.802C74.3806 106.626 71.8003 104.902 69.6268 102.728C67.4533 100.555 65.7292 97.9747 64.553 95.1349C63.3767 92.2951 62.7713 89.2515 62.7713 86.1777C62.7713 83.104 63.3767 80.0603 64.553 77.2205C65.7292 74.3808 67.4533 71.8005 69.6268 69.627C71.8003 67.4535 74.3806 65.7294 77.2203 64.5532C80.0601 63.3769 83.1038 62.7715 86.1775 62.7715C89.2513 62.7715 92.2949 63.3769 95.1347 64.5532C97.9745 65.7295 100.555 67.4535 102.728 69.627C104.902 71.8005 106.626 74.3808 107.802 77.2205C108.978 80.0603 109.584 83.104 109.584 86.1777C109.584 89.2515 108.978 92.2951 107.802 95.1349C106.626 97.9747 104.902 100.555 102.728 102.728C100.555 104.902 97.9745 106.626 95.1347 107.802C92.2949 108.979 89.2513 109.584 86.1775 109.584L86.1775 109.584Z" stroke="#313030" stroke-width="10"/>
<path d="M104.174 153.826C90.7592 157.421 76.5799 156.956 63.429 152.492C50.2781 148.028 38.7463 139.765 30.2918 128.746C21.8374 117.728 16.84 104.451 15.9317 90.5926C15.0233 76.7344 18.2448 62.9181 25.1888 50.8907C32.1327 38.8634 42.4873 29.1653 54.943 23.0228C67.3987 16.8803 81.3961 14.5693 95.1652 16.382C108.934 18.1947 121.857 24.0497 132.298 33.2067C142.74 42.3636 150.232 54.4111 153.826 67.8259" stroke="#313030" stroke-width="20" stroke-linecap="round"/>
<path d="M86.1775 41.4932C95.0153 41.4932 103.655 44.1139 111.003 49.0239C118.351 53.9339 124.079 60.9127 127.461 69.0777C130.843 77.2427 131.728 86.2273 130.004 94.8953C128.279 103.563 124.024 111.525 117.774 117.775C111.525 124.024 103.563 128.28 94.8952 130.004C86.2272 131.728 77.2426 130.843 69.0776 127.461C60.9125 124.079 53.9337 118.352 49.0237 111.003C44.1137 103.655 41.4929 95.0157 41.4929 86.1779" stroke="#FF6A3B" stroke-width="16" stroke-linecap="round"/>
<path d="M86.1775 62.7715C90.8068 62.7715 95.3321 64.1442 99.1813 66.7161C103.03 69.288 106.03 72.9436 107.802 77.2205C109.574 81.4975 110.037 86.2037 109.134 90.744C108.231 95.2844 106.002 99.455 102.728 102.728C99.4548 106.002 95.2842 108.231 90.7438 109.134C86.2035 110.037 81.4973 109.574 77.2203 107.802C72.9434 106.031 69.2879 103.031 66.7159 99.1816C64.144 95.3324 62.7713 90.8071 62.7712 86.1778" stroke="#FFF3AB" stroke-width="10" stroke-linecap="round"/>
<g filter="url(#filter0_d_89_4507)">
<path d="M86.0427 15.824C99.9306 15.824 113.507 19.9422 125.054 27.6579C136.601 35.3737 145.602 46.3403 150.916 59.1711C156.231 72.0019 157.622 86.1205 154.912 99.7416C152.203 113.363 145.515 125.874 135.695 135.695C125.875 145.515 113.363 152.203 99.7418 154.912C86.1207 157.622 72.0021 156.231 59.1713 150.916C46.3405 145.602 35.3738 136.602 27.6581 125.054C19.9423 113.507 15.824 99.9308 15.824 86.0429" stroke="#FFBD5A" stroke-width="20" stroke-linecap="round"/>
</g>
<defs>
<filter id="filter0_d_89_4507" x="1.82397" y="5.82397" width="168.438" height="168.438" filterUnits="userSpaceOnUse" color-interpolation-filters="sRGB">
<feFlood flood-opacity="0" result="BackgroundImageFix"/>
<feColorMatrix in="SourceAlpha" type="matrix" values="0 0 0 0 0 0 0 0 0 0 0 0 0 0 0 0 0 0 127 0" result="hardAlpha"/>
<feOffset dy="4"/>
<feGaussianBlur stdDeviation="2"/>
<feComposite in2="hardAlpha" operator="out"/>
<feColorMatrix type="matrix" values="0 0 0 0 0 0 0 0 0 0 0 0 0 0 0 0 0 0 0.25 0"/>
<feBlend mode="normal" in2="BackgroundImageFix" result="effect1_dropShadow_89_4507"/>
<feBlend mode="normal" in="SourceGraphic" in2="effect1_dropShadow_89_4507" result="shape"/>
</filter>
</defs>
</svg>
