<svg width="26" height="20" viewBox="0 0 26 20" fill="none" xmlns="http://www.w3.org/2000/svg">
<path d="M0.508485 10.9427C0.289769 10.6926 0.166901 10.3535 0.166901 9.99999C0.166901 9.64644 0.289769 9.30737 0.508485 9.05733L7.50849 1.05733C7.72852 0.81445 8.02322 0.680057 8.32912 0.683095C8.63502 0.686133 8.92763 0.826358 9.14394 1.07357C9.36025 1.32078 9.48295 1.6552 9.4856 2.00479C9.48826 2.35439 9.37067 2.69119 9.15815 2.94266L4.14965 8.66666H24.6667C24.9761 8.66666 25.2728 8.80714 25.4916 9.05719C25.7104 9.30723 25.8333 9.64637 25.8333 9.99999C25.8333 10.3536 25.7104 10.6928 25.4916 10.9428C25.2728 11.1929 24.9761 11.3333 24.6667 11.3333H4.14965L9.15815 17.0573C9.37067 17.3088 9.48826 17.6456 9.4856 17.9952C9.48295 18.3448 9.36025 18.6792 9.14394 18.9264C8.92763 19.1736 8.63502 19.3139 8.32912 19.3169C8.02322 19.3199 7.72852 19.1855 7.50849 18.9427L0.508485 10.9427Z" fill="white"/>
</svg>
