<svg width="22" height="18" viewBox="0 0 22 18" fill="none" xmlns="http://www.w3.org/2000/svg">
<path fill-rule="evenodd" clip-rule="evenodd" d="M8.48235 1C7.5987 1 6.88235 1.71635 6.88235 2.6V12.8347C8.03477 13.0947 8.94252 14.1037 9.17646 15.3846H14C14.2725 13.8924 15.4594 12.7693 16.8824 12.7693C18.2925 12.7693 19.4709 13.8724 19.7571 15.3446C20.4689 15.1823 21 14.5455 21 13.7846V2.6C21 1.71634 20.2837 1 19.4 1H8.48235ZM16.8857 15.3846C16.8846 15.3846 16.8835 15.3846 16.8824 15.3846C16.8812 15.3846 16.8801 15.3846 16.879 15.3846H16.8857ZM5.70588 3.61537V12.8347C4.55347 13.0947 3.64573 14.1037 3.41179 15.3846H2.6C1.71634 15.3846 1 14.6683 1 13.7846V10.8077H1.83012H2.52282H3.54864C4.09031 10.8077 4.52941 10.3686 4.52941 9.82689C4.52941 9.28522 4.09031 8.84612 3.54864 8.84612H2.52282H1.83012H1V7.98147C1 7.69158 1.07876 7.40712 1.22787 7.15851L3.35294 3.61537H5.70588ZM2.17647 10.1907C2.20717 10.0746 2.22353 9.95265 2.22353 9.82689C2.22353 9.70113 2.20717 9.57919 2.17647 9.46309C2.14577 9.57919 2.12941 9.70113 2.12941 9.82689C2.12941 9.95265 2.14577 10.0746 2.17647 10.1907Z" fill="#FFBD5A"/>
<path d="M6.88235 12.8347H6.56235C6.56235 12.9843 6.66599 13.1139 6.81192 13.1468L6.88235 12.8347ZM9.17646 15.3846L8.86166 15.4421C8.88943 15.5941 9.0219 15.7046 9.17646 15.7046V15.3846ZM14 15.3846V15.7046C14.1546 15.7046 14.287 15.5941 14.3148 15.4421L14 15.3846ZM19.7571 15.3446L19.443 15.4057C19.4596 15.4907 19.5099 15.5655 19.5825 15.6127C19.6551 15.66 19.7438 15.6759 19.8283 15.6566L19.7571 15.3446ZM16.8857 15.3846V15.7046C17.0621 15.7046 17.2052 15.5619 17.2057 15.3856C17.2062 15.2092 17.064 15.0657 16.8876 15.0646L16.8857 15.3846ZM16.879 15.3846L16.8771 15.0646C16.7007 15.0657 16.5585 15.2092 16.559 15.3856C16.5595 15.5619 16.7026 15.7046 16.879 15.7046V15.3846ZM5.70588 12.8347L5.77631 13.1468C5.92224 13.1139 6.02588 12.9843 6.02588 12.8347H5.70588ZM5.70588 3.61537H6.02588C6.02588 3.43864 5.88261 3.29537 5.70588 3.29537V3.61537ZM3.41179 15.3846V15.7046C3.56634 15.7046 3.69881 15.5941 3.72658 15.4421L3.41179 15.3846ZM1 10.8077V10.4877C0.823269 10.4877 0.68 10.6309 0.68 10.8077H1ZM1 8.84612H0.68C0.68 9.02285 0.823269 9.16612 1 9.16612V8.84612ZM1.22787 7.15851L1.5023 7.32311L1.22787 7.15851ZM3.35294 3.61537V3.29537C3.24052 3.29537 3.13634 3.35436 3.07852 3.45078L3.35294 3.61537ZM2.17647 10.1907L1.86711 10.2725C1.90423 10.4129 2.03125 10.5107 2.17647 10.5107C2.3217 10.5107 2.44871 10.4129 2.48584 10.2725L2.17647 10.1907ZM2.17647 9.46309L2.48584 9.38128C2.44871 9.24088 2.3217 9.14309 2.17647 9.14309C2.03125 9.14309 1.90423 9.24088 1.86711 9.38128L2.17647 9.46309ZM7.20235 2.6C7.20235 1.89308 7.77543 1.32 8.48235 1.32V0.68C7.42196 0.68 6.56235 1.53961 6.56235 2.6H7.20235ZM7.20235 12.8347V2.6H6.56235V12.8347H7.20235ZM9.49125 15.3271C9.23729 13.9365 8.24598 12.8143 6.95278 12.5225L6.81192 13.1468C7.82357 13.3751 8.64775 14.2708 8.86166 15.4421L9.49125 15.3271ZM14 15.0646H9.17646V15.7046H14V15.0646ZM14.3148 15.4421C14.5645 14.075 15.6399 13.0893 16.8824 13.0893V12.4493C15.279 12.4493 13.9806 13.7098 13.6852 15.3271L14.3148 15.4421ZM16.8824 13.0893C18.1138 13.0893 19.1808 14.0572 19.443 15.4057L20.0713 15.2835C19.7609 13.6875 18.4712 12.4493 16.8824 12.4493V13.0893ZM20.68 13.7846C20.68 14.3929 20.2554 14.9028 19.686 15.0326L19.8283 15.6566C20.6824 15.4619 21.32 14.6981 21.32 13.7846H20.68ZM20.68 2.6V13.7846H21.32V2.6H20.68ZM19.4 1.32C20.1069 1.32 20.68 1.89308 20.68 2.6H21.32C21.32 1.53961 20.4604 0.68 19.4 0.68V1.32ZM8.48235 1.32H19.4V0.68H8.48235V1.32ZM16.8876 15.0646C16.886 15.0646 16.8842 15.0646 16.8824 15.0646V15.7046C16.8828 15.7046 16.8832 15.7046 16.8838 15.7046L16.8876 15.0646ZM16.8824 15.0646C16.8805 15.0646 16.8787 15.0646 16.8771 15.0646L16.8809 15.7046C16.8815 15.7046 16.882 15.7046 16.8824 15.7046V15.0646ZM16.8857 15.0646H16.879V15.7046H16.8857V15.0646ZM6.02588 12.8347V3.61537H5.38588V12.8347H6.02588ZM3.72658 15.4421C3.9405 14.2708 4.76467 13.3751 5.77631 13.1468L5.63545 12.5225C4.34226 12.8143 3.35096 13.9365 3.09699 15.3271L3.72658 15.4421ZM2.6 15.7046H3.41179V15.0646H2.6V15.7046ZM0.68 13.7846C0.68 14.845 1.53961 15.7046 2.6 15.7046V15.0646C1.89308 15.0646 1.32 14.4915 1.32 13.7846H0.68ZM0.68 10.8077V13.7846H1.32V10.8077H0.68ZM1.83012 10.4877H1V11.1277H1.83012V10.4877ZM2.52282 10.4877H1.83012V11.1277H2.52282V10.4877ZM3.54864 10.4877H2.52282V11.1277H3.54864V10.4877ZM4.20941 9.82689C4.20941 10.1918 3.91358 10.4877 3.54864 10.4877V11.1277C4.26704 11.1277 4.84941 10.5453 4.84941 9.82689H4.20941ZM3.54864 9.16612C3.91358 9.16612 4.20941 9.46195 4.20941 9.82689H4.84941C4.84941 9.10849 4.26704 8.52612 3.54864 8.52612V9.16612ZM2.52282 9.16612H3.54864V8.52612H2.52282V9.16612ZM1.83012 9.16612H2.52282V8.52612H1.83012V9.16612ZM1 9.16612H1.83012V8.52612H1V9.16612ZM0.68 7.98147V8.84612H1.32V7.98147H0.68ZM0.953446 6.99392C0.774515 7.29225 0.68 7.6336 0.68 7.98147H1.32C1.32 7.74956 1.38301 7.52199 1.5023 7.32311L0.953446 6.99392ZM3.07852 3.45078L0.953446 6.99392L1.5023 7.32311L3.62737 3.77996L3.07852 3.45078ZM5.70588 3.29537H3.35294V3.93537H5.70588V3.29537ZM1.90353 9.82689C1.90353 9.92479 1.89081 10.0192 1.86711 10.1089L2.48584 10.2725C2.52354 10.1299 2.54353 9.9805 2.54353 9.82689H1.90353ZM1.86711 9.54489C1.89081 9.63454 1.90353 9.72898 1.90353 9.82689H2.54353C2.54353 9.67327 2.52354 9.52385 2.48584 9.38128L1.86711 9.54489ZM2.44941 9.82689C2.44941 9.72898 2.46213 9.63454 2.48584 9.54489L1.86711 9.38128C1.82941 9.52385 1.80941 9.67327 1.80941 9.82689H2.44941ZM2.48584 10.1089C2.46213 10.0192 2.44941 9.92479 2.44941 9.82689H1.80941C1.80941 9.9805 1.82941 10.1299 1.86711 10.2725L2.48584 10.1089Z" fill="#FFBD5A"/>
<mask id="path-3-inside-1_90_953" fill="white">
<ellipse cx="6.29412" cy="16.0384" rx="1.76471" ry="1.96154"/>
</mask>
<path d="M5.65882 16.0384C5.65882 15.9967 5.67446 15.9129 5.75774 15.8203C5.84468 15.7236 6.03111 15.6 6.29412 15.6V20.4C8.82664 20.4 10.4588 18.2022 10.4588 16.0384H5.65882ZM6.29412 15.6C6.55713 15.6 6.74356 15.7236 6.83049 15.8203C6.91377 15.9129 6.92941 15.9967 6.92941 16.0384H2.12941C2.12941 18.2022 3.7616 20.4 6.29412 20.4V15.6ZM6.92941 16.0384C6.92941 16.0802 6.91377 16.164 6.83049 16.2566C6.74356 16.3532 6.55713 16.4769 6.29412 16.4769V11.6769C3.7616 11.6769 2.12941 13.8747 2.12941 16.0384H6.92941ZM6.29412 16.4769C6.03111 16.4769 5.84468 16.3532 5.75774 16.2566C5.67446 16.164 5.65882 16.0802 5.65882 16.0384H10.4588C10.4588 13.8747 8.82664 11.6769 6.29412 11.6769V16.4769Z" fill="#FFBD5A" mask="url(#path-3-inside-1_90_953)"/>
<mask id="path-5-inside-2_90_953" fill="white">
<ellipse cx="16.8824" cy="16.0384" rx="1.76471" ry="1.96154"/>
</mask>
<path d="M16.2471 16.0384C16.2471 15.9967 16.2627 15.9129 16.346 15.8203C16.4329 15.7236 16.6193 15.6 16.8824 15.6V20.4C19.4149 20.4 21.0471 18.2022 21.0471 16.0384H16.2471ZM16.8824 15.6C17.1454 15.6 17.3318 15.7236 17.4187 15.8203C17.502 15.9129 17.5176 15.9967 17.5176 16.0384H12.7176C12.7176 18.2022 14.3498 20.4 16.8824 20.4V15.6ZM17.5176 16.0384C17.5176 16.0802 17.502 16.164 17.4187 16.2566C17.3318 16.3532 17.1454 16.4769 16.8824 16.4769V11.6769C14.3498 11.6769 12.7176 13.8747 12.7176 16.0384H17.5176ZM16.8824 16.4769C16.6193 16.4769 16.4329 16.3532 16.346 16.2566C16.2627 16.164 16.2471 16.0802 16.2471 16.0384H21.0471C21.0471 13.8747 19.4149 11.6769 16.8824 11.6769V16.4769Z" fill="#FFBD5A" mask="url(#path-5-inside-2_90_953)"/>
</svg>
