<svg width="22" height="19" viewBox="0 0 22 19" fill="none" xmlns="http://www.w3.org/2000/svg">
<path fill-rule="evenodd" clip-rule="evenodd" d="M3.90909 5.00808H6.29002C6.64379 6.2041 7.75069 7.07678 9.06143 7.07678H9.45596C10.0015 6.79308 10.6214 6.63275 11.2788 6.63275C11.9362 6.63275 12.5561 6.79308 13.1017 7.07678H13.4962C14.8069 7.07678 15.9138 6.2041 16.2676 5.00808H18.6485C19.1841 5.00808 19.6182 5.44223 19.6182 5.97778V15.5455C19.6182 16.081 19.1841 16.5152 18.6485 16.5152H3.90909C3.37354 16.5152 2.93939 16.081 2.93939 15.5455V5.97778C2.93939 5.44223 3.37354 5.00808 3.90909 5.00808ZM18.6485 3.06869H16.2676C15.9138 1.87267 14.8069 1 13.4962 1H9.06143C7.7507 1 6.64379 1.87267 6.29003 3.06869H3.90909C2.30245 3.06869 1 4.37113 1 5.97778V15.5455C1 17.1521 2.30244 18.4546 3.90909 18.4546H18.6485C20.2552 18.4546 21.5576 17.1521 21.5576 15.5455V5.97778C21.5576 4.37113 20.2552 3.06869 18.6485 3.06869ZM9.06143 2.93939C8.8868 2.93939 8.72317 2.9865 8.58256 3.06869H13.9751C13.8344 2.9865 13.6708 2.93939 13.4962 2.93939H9.06143ZM13.9751 5.00808H8.58255C8.72316 5.09028 8.88679 5.13738 9.06143 5.13738H13.4962C13.6708 5.13738 13.8345 5.09028 13.9751 5.00808Z" fill="#FFBD5A"/>
<path d="M6.29002 5.00808L6.59688 4.91732C6.55667 4.78137 6.4318 4.68808 6.29002 4.68808V5.00808ZM9.45596 7.07678V7.39678C9.50736 7.39678 9.558 7.38439 9.6036 7.36068L9.45596 7.07678ZM13.1017 7.07678L12.954 7.36068C12.9996 7.38439 13.0503 7.39678 13.1017 7.39678V7.07678ZM16.2676 5.00808V4.68808C16.1258 4.68808 16.0009 4.78137 15.9607 4.91732L16.2676 5.00808ZM16.2676 3.06869L15.9607 3.15945C16.0009 3.2954 16.1258 3.38869 16.2676 3.38869V3.06869ZM6.29003 3.06869V3.38869C6.4318 3.38869 6.55667 3.2954 6.59688 3.15945L6.29003 3.06869ZM8.58256 3.06869L8.42108 2.79242C8.29631 2.86535 8.23591 3.01285 8.27369 3.15234C8.31147 3.29183 8.43805 3.38869 8.58256 3.38869V3.06869ZM13.9751 3.06869V3.38869C14.1196 3.38869 14.2461 3.29183 14.2839 3.15234C14.3217 3.01285 14.2613 2.86535 14.1365 2.79242L13.9751 3.06869ZM8.58255 5.00808V4.68808C8.43803 4.68808 8.31145 4.78494 8.27367 4.92443C8.2359 5.06392 8.2963 5.21141 8.42106 5.28434L8.58255 5.00808ZM13.9751 5.00808L14.1366 5.28434C14.2613 5.21141 14.3217 5.06392 14.2839 4.92443C14.2462 4.78494 14.1196 4.68808 13.9751 4.68808V5.00808ZM6.29002 4.68808H3.90909V5.32808H6.29002V4.68808ZM9.06143 6.75678C7.89631 6.75678 6.91153 5.98111 6.59688 4.91732L5.98316 5.09884C6.37604 6.42709 7.60507 7.39678 9.06143 7.39678V6.75678ZM9.45596 6.75678H9.06143V7.39678H9.45596V6.75678ZM9.6036 7.36068C10.1046 7.10014 10.674 6.95275 11.2788 6.95275V6.31275C10.5688 6.31275 9.89836 6.48602 9.30832 6.79287L9.6036 7.36068ZM11.2788 6.95275C11.8836 6.95275 12.453 7.10014 12.954 7.36068L13.2493 6.79287C12.6593 6.48602 11.9888 6.31275 11.2788 6.31275V6.95275ZM13.4962 6.75678H13.1017V7.39678H13.4962V6.75678ZM15.9607 4.91732C15.6461 5.98111 14.6613 6.75678 13.4962 6.75678V7.39678C14.9525 7.39678 16.1816 6.42709 16.5745 5.09884L15.9607 4.91732ZM18.6485 4.68808H16.2676V5.32808H18.6485V4.68808ZM19.9382 5.97778C19.9382 5.2655 19.3608 4.68808 18.6485 4.68808V5.32808C19.0073 5.32808 19.2982 5.61896 19.2982 5.97778H19.9382ZM19.9382 15.5455V5.97778H19.2982V15.5455H19.9382ZM18.6485 16.8352C19.3608 16.8352 19.9382 16.2578 19.9382 15.5455H19.2982C19.2982 15.9043 19.0073 16.1952 18.6485 16.1952V16.8352ZM3.90909 16.8352H18.6485V16.1952H3.90909V16.8352ZM2.61939 15.5455C2.61939 16.2578 3.19681 16.8352 3.90909 16.8352V16.1952C3.55027 16.1952 3.25939 15.9043 3.25939 15.5455H2.61939ZM2.61939 5.97778V15.5455H3.25939V5.97778H2.61939ZM3.90909 4.68808C3.19681 4.68808 2.61939 5.2655 2.61939 5.97778H3.25939C3.25939 5.61896 3.55027 5.32808 3.90909 5.32808V4.68808ZM16.2676 3.38869H18.6485V2.74869H16.2676V3.38869ZM13.4962 1.32C14.6613 1.32 15.6461 2.09566 15.9607 3.15945L16.5744 2.97792C16.1816 1.64968 14.9525 0.68 13.4962 0.68V1.32ZM9.06143 1.32H13.4962V0.68H9.06143V1.32ZM6.59688 3.15945C6.91154 2.09566 7.89632 1.32 9.06143 1.32V0.68C7.60508 0.68 6.37604 1.64968 5.98317 2.97792L6.59688 3.15945ZM3.90909 3.38869H6.29003V2.74869H3.90909V3.38869ZM1.32 5.97778C1.32 4.54786 2.47918 3.38869 3.90909 3.38869V2.74869C2.12572 2.74869 0.68 4.1944 0.68 5.97778H1.32ZM1.32 15.5455V5.97778H0.68V15.5455H1.32ZM3.90909 18.1346C2.47917 18.1346 1.32 16.9754 1.32 15.5455H0.68C0.68 17.3289 2.12571 18.7746 3.90909 18.7746V18.1346ZM18.6485 18.1346H3.90909V18.7746H18.6485V18.1346ZM21.2376 15.5455C21.2376 16.9754 20.0784 18.1346 18.6485 18.1346V18.7746C20.4319 18.7746 21.8776 17.3289 21.8776 15.5455H21.2376ZM21.2376 5.97778V15.5455H21.8776V5.97778H21.2376ZM18.6485 3.38869C20.0784 3.38869 21.2376 4.54786 21.2376 5.97778H21.8776C21.8776 4.1944 20.4319 2.74869 18.6485 2.74869V3.38869ZM8.74405 3.34495C8.83699 3.29062 8.94508 3.25939 9.06143 3.25939V2.61939C8.82852 2.61939 8.60936 2.68237 8.42108 2.79242L8.74405 3.34495ZM13.9751 2.74869H8.58256V3.38869H13.9751V2.74869ZM13.4962 3.25939C13.6125 3.25939 13.7206 3.29062 13.8136 3.34495L14.1365 2.79242C13.9483 2.68237 13.7291 2.61939 13.4962 2.61939V3.25939ZM9.06143 3.25939H13.4962V2.61939H9.06143V3.25939ZM8.58255 5.32808H13.9751V4.68808H8.58255V5.32808ZM9.06143 4.81738C8.94507 4.81738 8.83698 4.78615 8.74404 4.73182L8.42106 5.28434C8.60934 5.3944 8.82852 5.45738 9.06143 5.45738V4.81738ZM13.4962 4.81738H9.06143V5.45738H13.4962V4.81738ZM13.8136 4.73182C13.7206 4.78615 13.6125 4.81738 13.4962 4.81738V5.45738C13.7291 5.45738 13.9483 5.3944 14.1366 5.28434L13.8136 4.73182Z" fill="#FFBD5A"/>
</svg>
