<svg width="22" height="20" viewBox="0 0 22 20" fill="none" xmlns="http://www.w3.org/2000/svg">
<path d="M10.9764 0C11.15 0 11.3186 0.0578521 11.4556 0.16441L20.9257 7.53006C21.266 7.7947 21.3273 8.28506 21.0626 8.62532C21.0334 8.66295 21.0007 8.69782 20.9651 8.72949L11.495 17.1474C11.1728 17.4338 10.6795 17.4047 10.3931 17.0826C10.2661 16.9397 10.1959 16.7552 10.1959 16.564L10.1956 13.1775C4.97919 13.4363 2.5675 15.7737 1.31389 19.4845C1.10861 19.8805 0.852061 20 0.598858 20C0.345655 20 0 19.7208 0 19.4845L0 18.3021C2.27478e-05 11.1044 1.77564 5.34909 10.1971 4.41534L10.1959 0.780496C10.1959 0.34944 10.5454 0 10.9764 0Z" fill="#FFBD5A"/>
</svg>
