<svg width="25" height="23" viewBox="0 0 25 23" fill="none" xmlns="http://www.w3.org/2000/svg">
<path d="M8.23641 1.82363L24.6746 0.17981V16.618C24.6746 17.807 24.2023 18.9473 23.3615 19.7881C22.5208 20.6288 21.3805 21.1012 20.1915 21.1012C19.0025 21.1012 17.8622 20.6288 17.0214 19.7881C16.1806 18.9473 15.7083 17.807 15.7083 16.618C15.7083 15.429 16.1806 14.2887 17.0214 13.448C17.8622 12.6072 19.0025 12.1349 20.1915 12.1349C21.3421 12.1349 22.3882 12.5682 23.1802 13.2706V6.21711L9.73079 7.7115V18.1124C9.73079 19.3014 9.25846 20.4417 8.41771 21.2825C7.57695 22.1232 6.43665 22.5955 5.24764 22.5955C4.05864 22.5955 2.91833 22.1232 2.07758 21.2825C1.23683 20.4417 0.764496 19.3014 0.764496 18.1124C0.764496 16.9234 1.23683 15.7831 2.07758 14.9423C2.91833 14.1016 4.05864 13.6292 5.24764 13.6292C6.39832 13.6292 7.44438 14.0626 8.23641 14.765V1.82363ZM9.73079 3.16857V6.20217L23.1802 4.72273V1.80869L9.73079 3.16857ZM8.23641 18.1124C8.23641 17.3197 7.92152 16.5595 7.36102 15.999C6.80052 15.4385 6.04031 15.1236 5.24764 15.1236C4.45497 15.1236 3.69477 15.4385 3.13427 15.999C2.57376 16.5595 2.25888 17.3197 2.25888 18.1124C2.25888 18.9051 2.57376 19.6653 3.13427 20.2258C3.69477 20.7863 4.45497 21.1012 5.24764 21.1012C6.04031 21.1012 6.80052 20.7863 7.36102 20.2258C7.92152 19.6653 8.23641 18.9051 8.23641 18.1124ZM23.1802 16.618C23.1802 15.8253 22.8653 15.0651 22.3048 14.5046C21.7443 13.9441 20.9841 13.6292 20.1915 13.6292C19.3988 13.6292 18.6386 13.9441 18.0781 14.5046C17.5176 15.0651 17.2027 15.8253 17.2027 16.618C17.2027 17.4107 17.5176 18.1709 18.0781 18.7314C18.6386 19.2919 19.3988 19.6068 20.1915 19.6068C20.9841 19.6068 21.7443 19.2919 22.3048 18.7314C22.8653 18.1709 23.1802 17.4107 23.1802 16.618Z" fill="white"/>
</svg>
