<svg width="17" height="17" viewBox="0 0 17 17" fill="none" xmlns="http://www.w3.org/2000/svg">
<path fill-rule="evenodd" clip-rule="evenodd" d="M7.75 0C3.46979 0 0 3.46979 0 7.75C0 12.0302 3.46979 15.5 7.75 15.5C9.68378 15.5 11.4521 14.7917 12.8098 13.6205L15.2071 16.0178C15.5 16.3107 15.9749 16.3107 16.2678 16.0178C16.5607 15.7249 16.5607 15.25 16.2678 14.9571L13.8463 12.5357C14.8822 11.218 15.5 9.55613 15.5 7.75C15.5 3.46979 12.0302 0 7.75 0ZM7.75 1.5C11.2018 1.5 14 4.29822 14 7.75C14 11.2018 11.2018 14 7.75 14C4.29822 14 1.5 11.2018 1.5 7.75C1.5 4.29822 4.29822 1.5 7.75 1.5Z" fill="#646464"/>
<mask id="mask0_84_208" style="mask-type:luminance" maskUnits="userSpaceOnUse" x="0" y="0" width="17" height="17">
<path fill-rule="evenodd" clip-rule="evenodd" d="M7.75 0C3.46979 0 0 3.46979 0 7.75C0 12.0302 3.46979 15.5 7.75 15.5C9.68378 15.5 11.4521 14.7917 12.8098 13.6205L15.2071 16.0178C15.5 16.3107 15.9749 16.3107 16.2678 16.0178C16.5607 15.7249 16.5607 15.25 16.2678 14.9571L13.8463 12.5357C14.8822 11.218 15.5 9.55613 15.5 7.75C15.5 3.46979 12.0302 0 7.75 0ZM7.75 1.5C11.2018 1.5 14 4.29822 14 7.75C14 11.2018 11.2018 14 7.75 14C4.29822 14 1.5 11.2018 1.5 7.75C1.5 4.29822 4.29822 1.5 7.75 1.5Z" fill="white"/>
</mask>
<g mask="url(#mask0_84_208)">
<rect x="-2.25" y="-2.25" width="20" height="20" fill="white"/>
</g>
</svg>
