<svg width="18" height="20" viewBox="0 0 18 20" fill="none" xmlns="http://www.w3.org/2000/svg">
<path d="M11.5 10C11.5 11.3807 10.3807 12.5 9 12.5C7.61929 12.5 6.5 11.3807 6.5 10C6.5 8.61929 7.61929 7.5 9 7.5C10.3807 7.5 11.5 8.61929 11.5 10Z" stroke="#FFF7F7" stroke-width="2"/>
<path d="M6.86943 2.91065C7.51249 0.696452 10.4875 0.696452 11.1306 2.91065C11.4729 4.08922 12.6219 4.78821 13.7618 4.51125C15.9033 3.99093 17.3908 6.70552 15.8924 8.39939C15.0948 9.30101 15.0948 10.699 15.8924 11.6006C17.3908 13.2945 15.9033 16.0091 13.7618 15.4887C12.6219 15.2118 11.4729 15.9108 11.1306 17.0894C10.4875 19.3035 7.51249 19.3035 6.86943 17.0894C6.52713 15.9108 5.37806 15.2118 4.23818 15.4887C2.09669 16.0091 0.609177 13.2945 2.1076 11.6006C2.90519 10.699 2.90519 9.30101 2.1076 8.39939C0.609178 6.70552 2.09669 3.99093 4.23818 4.51125C5.37806 4.78821 6.52713 4.08922 6.86943 2.91065Z" stroke="#FFF7F7" stroke-width="2"/>
</svg>
