<svg width="375" height="88" viewBox="0 0 375 88" fill="none" xmlns="http://www.w3.org/2000/svg">
<g opacity="0.5">
<path opacity="0.5" d="M4.39271 63.3793C3.79982 63.3793 3.26624 62.9202 3.26624 62.2889V45.8174C3.26624 45.2435 3.74053 44.7269 4.39271 44.7269C5.04489 44.7269 5.51922 45.1861 5.51922 45.8174V62.2889C5.51922 62.9202 5.04489 63.3793 4.39271 63.3793Z" fill="#FFBD5A"/>
</g>
<g opacity="0.5">
<path opacity="0.5" d="M10.3212 71.1261C9.72831 71.1261 9.19473 70.6669 9.19473 70.0356V37.7814C9.19473 37.2074 9.66902 36.6909 10.3212 36.6909C10.9734 36.6909 11.4477 37.15 11.4477 37.7814V70.0356C11.3884 70.6669 10.9141 71.1261 10.3212 71.1261Z" fill="#FFBD5A"/>
</g>
<g opacity="0.5">
<path opacity="0.5" d="M16.1902 79.5058C15.5973 79.5058 15.0637 79.0467 15.0637 78.4154V30.5505C15.0637 29.9766 15.538 29.4601 16.1902 29.4601C16.8424 29.4601 17.3167 29.9192 17.3167 30.5505V78.4154C17.3167 78.9893 16.8424 79.5058 16.1902 79.5058Z" fill="#FFBD5A"/>
</g>
<g opacity="0.5">
<path opacity="0.5" d="M22.1196 80.1945C21.5267 80.1945 20.993 79.7354 20.993 79.1041V30.5505C20.993 29.9766 21.4674 29.4601 22.1196 29.4601C22.7717 29.4601 23.2461 29.9192 23.2461 30.5505V79.1041C23.1868 79.7354 22.7124 80.1945 22.1196 80.1945Z" fill="#FFBD5A"/>
</g>
<g opacity="0.5">
<path opacity="0.5" d="M27.9885 73.4804C27.3956 73.4804 26.862 73.0212 26.862 72.3899V35.5443C26.862 34.9704 27.3363 34.4539 27.9885 34.4539C28.6407 34.4539 29.115 34.913 29.115 35.5443V72.3899C29.115 72.9638 28.5814 73.4804 27.9885 73.4804Z" fill="#FFBD5A"/>
</g>
<g opacity="0.5">
<path opacity="0.5" d="M33.9178 71.1269C33.3249 71.1269 32.7913 70.6677 32.7913 70.0364V40.4796C32.7913 39.9057 33.2656 39.3892 33.9178 39.3892C34.5107 39.3892 35.0443 39.8483 35.0443 40.4796V70.0364C34.985 70.6677 34.5107 71.1269 33.9178 71.1269Z" fill="#FFBD5A"/>
</g>
<g opacity="0.5">
<path opacity="0.5" d="M39.7876 63.3793C39.1947 63.3793 38.6611 62.9202 38.6611 62.2889V45.8174C38.6611 45.2435 39.1354 44.7269 39.7876 44.7269C40.3805 44.7269 40.9141 45.1861 40.9141 45.8174V62.2889C40.9141 62.9202 40.3805 63.3793 39.7876 63.3793Z" fill="#FFBD5A"/>
</g>
<g opacity="0.5">
<path opacity="0.5" d="M45.6574 57.9267C45.0645 57.9267 44.5309 57.4675 44.5309 56.8362V50.064C44.5309 49.49 45.0052 48.9735 45.6574 48.9735C46.3095 48.9735 46.7838 49.4326 46.7838 50.064V56.8362C46.7838 57.4675 46.3095 57.9267 45.6574 57.9267Z" fill="#FFBD5A"/>
</g>
<g opacity="0.5">
<path opacity="0.5" d="M51.5867 57.9269C50.9938 57.9269 50.4602 57.4677 50.4602 56.8364V48.6868C50.4602 48.1128 50.9345 47.5963 51.5867 47.5963C52.2389 47.5963 52.7132 48.0554 52.7132 48.6868V56.8364C52.7132 57.4677 52.1796 57.9269 51.5867 57.9269Z" fill="#FFBD5A"/>
</g>
<g opacity="0.5">
<path opacity="0.5" d="M57.4556 60.4519C56.8627 60.4519 56.3292 59.9927 56.3292 59.3614V43.8082C56.3292 43.2343 56.8035 42.7178 57.4556 42.7178C58.1078 42.7178 58.5821 43.1769 58.5821 43.8082V59.3614C58.5821 59.9927 58.1078 60.4519 57.4556 60.4519Z" fill="#FFBD5A"/>
</g>
<g opacity="0.5">
<path opacity="0.5" d="M63.3842 58.7869C62.7913 58.7869 62.2577 58.3278 62.2577 57.6965V33.2475C62.2577 32.6736 62.732 32.1571 63.3842 32.1571C64.0363 32.1571 64.5107 32.6162 64.5107 33.2475V57.6965C64.4514 58.2704 63.9771 58.7869 63.3842 58.7869Z" fill="#FFBD5A"/>
</g>
<g opacity="0.5">
<path opacity="0.5" d="M69.2539 53.1057C68.6611 53.1057 68.1274 52.6466 68.1274 52.0152V27.5663C68.1274 26.9924 68.6018 26.4758 69.2539 26.4758C69.9061 26.4758 70.3805 26.935 70.3805 27.5663V52.0152C70.3805 52.5892 69.9061 53.1057 69.2539 53.1057Z" fill="#FFBD5A"/>
</g>
<g opacity="0.5">
<path opacity="0.5" d="M75.1833 56.6635C74.5904 56.6635 74.0568 56.2044 74.0568 55.5731V31.1241C74.0568 30.5502 74.5311 30.0337 75.1833 30.0337C75.8355 30.0337 76.3098 30.4928 76.3098 31.1241V55.5731C76.2505 56.147 75.7762 56.6635 75.1833 56.6635Z" fill="#FFBD5A"/>
</g>
<g opacity="0.5">
<path opacity="0.5" d="M81.0523 63.3784C80.4594 63.3784 79.9258 62.9192 79.9258 62.2879V37.839C79.9258 37.2651 80.4001 36.7485 81.0523 36.7485C81.6452 36.7485 82.1787 37.2077 82.1787 37.839V62.2879C82.1787 62.9192 81.6452 63.3784 81.0523 63.3784Z" fill="#FFBD5A"/>
</g>
<g opacity="0.5">
<path opacity="0.5" d="M86.9815 69.5767C86.3887 69.5767 85.855 69.1176 85.855 68.4863V37.839C85.855 37.2651 86.3294 36.7485 86.9815 36.7485C87.5744 36.7485 88.108 37.2077 88.108 37.839V68.4863C88.0487 69.0602 87.5744 69.5767 86.9815 69.5767Z" fill="#FFBD5A"/>
</g>
<g opacity="0.5">
<path opacity="0.5" d="M92.8505 63.3784C92.2576 63.3784 91.724 62.9193 91.724 62.288V32.0425C91.724 31.4685 92.1983 30.952 92.8505 30.952C93.4434 30.952 93.977 31.4112 93.977 32.0425V62.288C93.977 62.9193 93.4434 63.3784 92.8505 63.3784Z" fill="#FFBD5A"/>
</g>
<g opacity="0.5">
<path opacity="0.5" d="M98.7203 54.3682C98.1274 54.3682 97.5938 53.9091 97.5938 53.2778V21.4827C97.5938 20.9087 98.0681 20.3922 98.7203 20.3922C99.3725 20.3922 99.8468 20.8513 99.8468 21.4827V53.2778C99.8468 53.8517 99.3725 54.3682 98.7203 54.3682Z" fill="#FFBD5A"/>
</g>
<g opacity="0.5">
<path opacity="0.5" d="M104.65 61.3124C104.057 61.3124 103.523 60.8533 103.523 60.2219V14.4806C103.523 13.9067 103.997 13.3901 104.65 13.3901C105.302 13.3901 105.776 13.8493 105.776 14.4806V60.2219C105.717 60.8533 105.243 61.3124 104.65 61.3124Z" fill="#FFBD5A"/>
</g>
<g opacity="0.5">
<path opacity="0.5" d="M110.52 67.9695C109.927 67.9695 109.394 67.5104 109.394 66.8791V8.6837C109.394 8.10979 109.868 7.59326 110.52 7.59326C111.172 7.59326 111.647 8.05239 111.647 8.6837V66.8791C111.647 67.5104 111.172 67.9695 110.52 67.9695Z" fill="#FFBD5A"/>
</g>
<g opacity="0.5">
<path opacity="0.5" d="M116.449 73.4796C115.856 73.4796 115.322 73.0205 115.322 72.3892V4.43713C115.322 3.86321 115.796 3.34668 116.449 3.34668C117.101 3.34668 117.575 3.80582 117.575 4.43713V72.3892C117.516 72.9631 117.042 73.4796 116.449 73.4796Z" fill="#FFBD5A"/>
</g>
<g opacity="0.5">
<path opacity="0.5" d="M122.318 66.2481C121.725 66.2481 121.191 65.7889 121.191 65.1576V12.3571C121.191 11.7831 121.665 11.2666 122.318 11.2666C122.97 11.2666 123.444 11.7257 123.444 12.3571V65.1576C123.444 65.7889 122.911 66.2481 122.318 66.2481Z" fill="#FFBD5A"/>
</g>
<g opacity="0.5">
<path opacity="0.5" d="M128.247 60.4518C127.654 60.4518 127.12 59.9926 127.12 59.3613V21.4827C127.12 20.9087 127.595 20.3922 128.247 20.3922C128.84 20.3922 129.374 20.8513 129.374 21.4827V59.3613C129.314 59.9926 128.84 60.4518 128.247 60.4518Z" fill="#FFBD5A"/>
</g>
<g opacity="0.5">
<path opacity="0.5" d="M134.116 54.3682C133.523 54.3682 132.989 53.909 132.989 53.2777V30.5505C132.989 29.9766 133.464 29.4601 134.116 29.4601C134.709 29.4601 135.242 29.9192 135.242 30.5505V53.2777C135.242 53.8516 134.709 54.3682 134.116 54.3682Z" fill="#FFBD5A"/>
</g>
<g opacity="0.5">
<path opacity="0.5" d="M139.986 48.2273C139.394 48.2273 138.86 47.7682 138.86 47.1369V35.4863C138.86 34.9124 139.334 34.3959 139.986 34.3959C140.579 34.3959 141.113 34.855 141.113 35.4863V47.1369C141.113 47.7682 140.639 48.2273 139.986 48.2273Z" fill="#FFBD5A"/>
</g>
<g opacity="0.5">
<path opacity="0.5" d="M234.081 60.0324C233.488 60.0324 232.954 59.5733 232.954 58.942V34.493C232.954 33.9191 233.428 33.4026 234.081 33.4026C234.733 33.4026 235.207 33.8617 235.207 34.493V58.942C235.207 59.5733 234.733 60.0324 234.081 60.0324Z" fill="#FFBD5A"/>
</g>
<g opacity="0.5">
<path opacity="0.5" d="M240.009 70.1339C239.416 70.1339 238.883 69.6747 238.883 69.0434V27.2047C238.883 26.6308 239.357 26.1143 240.009 26.1143C240.661 26.1143 241.136 26.5734 241.136 27.2047V69.0434C241.076 69.6173 240.602 70.1339 240.009 70.1339Z" fill="#FFBD5A"/>
</g>
<g opacity="0.5">
<path opacity="0.5" d="M245.878 84.6538C245.285 84.6538 244.752 84.1946 244.752 83.5633V20.4322C244.752 19.8583 245.226 19.3418 245.878 19.3418C246.53 19.3418 247.005 19.8009 247.005 20.4322V83.5633C247.005 84.1946 246.53 84.6538 245.878 84.6538Z" fill="#FFBD5A"/>
</g>
<g opacity="0.5">
<path opacity="0.5" d="M251.808 78.5699C251.215 78.5699 250.682 78.1107 250.682 77.4794V27.1467C250.682 26.5728 251.156 26.0563 251.808 26.0563C252.401 26.0563 252.935 26.5154 252.935 27.1467V77.4794C252.875 78.1107 252.401 78.5699 251.808 78.5699Z" fill="#FFBD5A"/>
</g>
<g opacity="0.5">
<path opacity="0.5" d="M257.677 70.1334C257.084 70.1334 256.551 69.6743 256.551 69.043V34.493C256.551 33.9191 257.025 33.4026 257.677 33.4026C258.27 33.4026 258.804 33.8617 258.804 34.493V69.043C258.804 69.6169 258.27 70.1334 257.677 70.1334Z" fill="#FFBD5A"/>
</g>
<g opacity="0.5">
<path opacity="0.5" d="M263.606 62.902C263.014 62.902 262.48 62.4429 262.48 61.8116V42.4131C262.48 41.8392 262.954 41.3226 263.606 41.3226C264.199 41.3226 264.733 41.7818 264.733 42.4131V61.8116C264.674 62.4429 264.199 62.902 263.606 62.902Z" fill="#FFBD5A"/>
</g>
<g opacity="0.5">
<path opacity="0.5" d="M269.476 54.5801C268.883 54.5801 268.35 54.121 268.35 53.4897V48.0949C268.35 47.5209 268.824 47.0044 269.476 47.0044C270.069 47.0044 270.603 47.4635 270.603 48.0949V53.4897C270.603 54.121 270.069 54.5801 269.476 54.5801Z" fill="#FFBD5A"/>
</g>
<g opacity="0.5">
<path opacity="0.5" d="M275.346 60.033C274.753 60.033 274.22 59.5739 274.22 58.9425V42.4711C274.22 41.8971 274.694 41.3806 275.346 41.3806C275.998 41.3806 276.472 41.8397 276.472 42.4711V58.9425C276.472 59.5739 275.998 60.033 275.346 60.033Z" fill="#FFBD5A"/>
</g>
<g opacity="0.5">
<path opacity="0.5" d="M281.275 67.7798C280.682 67.7798 280.148 67.3206 280.148 66.6893V34.435C280.148 33.8611 280.622 33.3446 281.275 33.3446C281.927 33.3446 282.401 33.8037 282.401 34.435V66.6893C282.342 67.3206 281.867 67.7798 281.275 67.7798Z" fill="#FFBD5A"/>
</g>
<g opacity="0.5">
<path opacity="0.5" d="M287.144 76.16C286.551 76.16 286.018 75.7009 286.018 75.0696V27.2047C286.018 26.6308 286.492 26.1143 287.144 26.1143C287.797 26.1143 288.271 26.5734 288.271 27.2047V75.0696C288.271 75.6435 287.797 76.16 287.144 76.16Z" fill="#FFBD5A"/>
</g>
<g opacity="0.5">
<path opacity="0.5" d="M293.074 76.8487C292.481 76.8487 291.947 76.3896 291.947 75.7583V27.2047C291.947 26.6308 292.421 26.1143 293.074 26.1143C293.726 26.1143 294.2 26.5734 294.2 27.2047V75.7583C294.141 76.3896 293.667 76.8487 293.074 76.8487Z" fill="#FFBD5A"/>
</g>
<g opacity="0.5">
<path opacity="0.5" d="M298.943 70.1337C298.35 70.1337 297.816 69.6745 297.816 69.0432V32.1976C297.816 31.6237 298.29 31.1072 298.943 31.1072C299.595 31.1072 300.069 31.5663 300.069 32.1976V69.0432C300.069 69.6172 299.536 70.1337 298.943 70.1337Z" fill="#FFBD5A"/>
</g>
<g opacity="0.5">
<path opacity="0.5" d="M304.872 67.7806C304.279 67.7806 303.745 67.3214 303.745 66.6901V37.1333C303.745 36.5594 304.22 36.0428 304.872 36.0428C305.465 36.0428 305.998 36.502 305.998 37.1333V66.6901C305.939 67.3214 305.465 67.7806 304.872 67.7806Z" fill="#FFBD5A"/>
</g>
<g opacity="0.5">
<path opacity="0.5" d="M310.741 60.033C310.148 60.033 309.614 59.5739 309.614 58.9425V42.4711C309.614 41.8971 310.089 41.3806 310.741 41.3806C311.334 41.3806 311.867 41.8397 311.867 42.4711V58.9425C311.867 59.5739 311.334 60.033 310.741 60.033Z" fill="#FFBD5A"/>
</g>
<g opacity="0.5">
<path opacity="0.5" d="M316.611 54.5803C316.018 54.5803 315.484 54.1212 315.484 53.4899V46.7176C315.484 46.1437 315.958 45.6272 316.611 45.6272C317.263 45.6272 317.737 46.0863 317.737 46.7176V53.4899C317.737 54.1212 317.263 54.5803 316.611 54.5803Z" fill="#FFBD5A"/>
</g>
<g opacity="0.5">
<path opacity="0.5" d="M322.54 54.5807C321.947 54.5807 321.413 54.1215 321.413 53.4902V45.3406C321.413 44.7666 321.888 44.2501 322.54 44.2501C323.192 44.2501 323.666 44.7093 323.666 45.3406V53.4902C323.666 54.1215 323.133 54.5807 322.54 54.5807Z" fill="#FFBD5A"/>
</g>
<g opacity="0.5">
<path opacity="0.5" d="M328.41 57.106C327.817 57.106 327.283 56.6469 327.283 56.0156V40.4624C327.283 39.8885 327.758 39.3719 328.41 39.3719C329.062 39.3719 329.536 39.8311 329.536 40.4624V56.0156C329.536 56.6469 329.062 57.106 328.41 57.106Z" fill="#FFBD5A"/>
</g>
<g opacity="0.5">
<path opacity="0.5" d="M334.338 55.4411C333.745 55.4411 333.212 54.982 333.212 54.3507V29.9017C333.212 29.3278 333.686 28.8113 334.338 28.8113C334.99 28.8113 335.465 29.2704 335.465 29.9017V54.3507C335.405 54.9246 334.931 55.4411 334.338 55.4411Z" fill="#FFBD5A"/>
</g>
<g opacity="0.5">
<path opacity="0.5" d="M340.207 49.7595C339.614 49.7595 339.081 49.3004 339.081 48.669V24.2201C339.081 23.6462 339.555 23.1296 340.207 23.1296C340.859 23.1296 341.334 23.5888 341.334 24.2201V48.669C341.334 49.243 340.859 49.7595 340.207 49.7595Z" fill="#FFBD5A"/>
</g>
<g opacity="0.5">
<path opacity="0.5" d="M346.137 53.3172C345.544 53.3172 345.01 52.8581 345.01 52.2268V27.7778C345.01 27.2039 345.484 26.6874 346.137 26.6874C346.789 26.6874 347.263 27.1465 347.263 27.7778V52.2268C347.204 52.8007 346.729 53.3172 346.137 53.3172Z" fill="#FFBD5A"/>
</g>
<g opacity="0.5">
<path opacity="0.5" d="M352.006 60.0324C351.413 60.0324 350.88 59.5733 350.88 58.942V34.493C350.88 33.9191 351.354 33.4026 352.006 33.4026C352.599 33.4026 353.133 33.8617 353.133 34.493V58.942C353.133 59.5733 352.599 60.0324 352.006 60.0324Z" fill="#FFBD5A"/>
</g>
<g opacity="0.5">
<path opacity="0.5" d="M357.936 66.2308C357.343 66.2308 356.809 65.7716 356.809 65.1403V34.493C356.809 33.9191 357.283 33.4026 357.936 33.4026C358.529 33.4026 359.062 33.8617 359.062 34.493V65.1403C359.003 65.7142 358.529 66.2308 357.936 66.2308Z" fill="#FFBD5A"/>
</g>
<g opacity="0.5">
<path opacity="0.5" d="M363.805 60.0321C363.212 60.0321 362.678 59.573 362.678 58.9417V28.6962C362.678 28.1222 363.152 27.6057 363.805 27.6057C364.397 27.6057 364.931 28.0648 364.931 28.6962V58.9417C364.931 59.573 364.397 60.0321 363.805 60.0321Z" fill="#FFBD5A"/>
</g>
<g opacity="0.5">
<path opacity="0.5" d="M369.674 51.0219C369.081 51.0219 368.548 50.5628 368.548 49.9315V18.1363C368.548 17.5624 369.022 17.0459 369.674 17.0459C370.327 17.0459 370.801 17.505 370.801 18.1363V49.9315C370.801 50.5054 370.327 51.0219 369.674 51.0219Z" fill="#FFBD5A"/>
</g>
<g opacity="0.5">
<path opacity="0.5" d="M375.604 57.9661C375.011 57.9661 374.477 57.5069 374.477 56.8756V11.1343C374.477 10.5604 374.952 10.0438 375.604 10.0438C376.256 10.0438 376.73 10.503 376.73 11.1343V56.8756C376.671 57.5069 376.197 57.9661 375.604 57.9661Z" fill="#FFBD5A"/>
</g>
</svg>
