<svg width="19" height="18" viewBox="0 0 19 18" fill="none" xmlns="http://www.w3.org/2000/svg">
<path fill-rule="evenodd" clip-rule="evenodd" d="M12.0985 17.0848L17.9235 1.93979C18.0503 1.61003 18.0503 1.24495 17.9235 0.91519C17.6405 0.179556 16.8148 -0.187429 16.0792 0.0955076L0.915193 5.92781C0.517931 6.0806 0.209604 6.40274 0.074354 6.80631C-0.176097 7.55363 0.226694 8.36248 0.974013 8.61293L7.33041 10.7432L9.41186 17.0216C9.54631 17.4271 9.85539 17.7511 10.2542 17.9045C10.9898 18.1874 11.8155 17.8204 12.0985 17.0848ZM7.89723 9.05174L2.48135 7.23671L15.9703 2.04866L10.7913 15.5139L9.02363 10.1818C8.84694 9.64884 8.42962 9.23017 7.89723 9.05174Z" fill="white"/>
</svg>
