<svg width="20" height="20" viewBox="0 0 20 20" fill="none" xmlns="http://www.w3.org/2000/svg">
<g clip-path="url(#clip0_89_1476)">
<path d="M10.2456 7.51211C9.73271 7.46145 9.21665 7.57057 8.76813 7.82454C8.31961 8.07851 7.96055 8.4649 7.74011 8.93081C7.51967 9.39673 7.44863 9.91939 7.53672 10.4272C7.6248 10.9351 7.86771 11.4033 8.23217 11.7678C8.59664 12.1322 9.06485 12.3751 9.5727 12.4632C10.0806 12.5513 10.6032 12.4803 11.0691 12.2598C11.535 12.0394 11.9214 11.6803 12.1754 11.2318C12.4294 10.7833 12.5385 10.2672 12.4878 9.7543C12.4301 9.17929 12.1753 8.64193 11.7667 8.23329C11.358 7.82465 10.8207 7.56986 10.2456 7.51211ZM16.2652 10C16.2636 10.2717 16.2436 10.5431 16.2054 10.8121L17.9714 12.1973C18.0483 12.261 18.1001 12.35 18.1177 12.4483C18.1352 12.5466 18.1173 12.648 18.0671 12.7344L16.3964 15.625C16.3457 15.7106 16.2664 15.7754 16.1725 15.8082C16.0786 15.841 15.9761 15.8396 15.8831 15.8043L14.1292 15.098C14.0325 15.0595 13.9278 15.0456 13.8243 15.0576C13.7209 15.0695 13.6221 15.1069 13.5367 15.1664C13.269 15.3507 12.9877 15.5145 12.6953 15.6562C12.6033 15.7009 12.5238 15.7676 12.4637 15.8503C12.4036 15.933 12.3648 16.0292 12.3507 16.1305L12.0878 18.0012C12.0706 18.1 12.0195 18.1897 11.9434 18.255C11.8673 18.3204 11.7709 18.3573 11.6706 18.3594H8.32924C8.23063 18.3577 8.13553 18.3224 8.05963 18.2594C7.98372 18.1965 7.93154 18.1095 7.91166 18.0129L7.64916 16.1449C7.63442 16.0426 7.59462 15.9454 7.53328 15.8621C7.47195 15.7789 7.39099 15.712 7.2976 15.6676C7.0055 15.5266 6.72517 15.3624 6.45932 15.1766C6.3742 15.1173 6.27568 15.0802 6.17265 15.0686C6.06961 15.0569 5.96529 15.0711 5.86909 15.1098L4.11557 15.8156C4.02264 15.851 3.92021 15.8525 3.82632 15.8197C3.73242 15.787 3.65309 15.7222 3.60229 15.6367L1.93159 12.7461C1.88136 12.6597 1.86341 12.5583 1.88093 12.46C1.89846 12.3616 1.95032 12.2727 2.02729 12.209L3.51987 11.0371C3.60164 10.9722 3.66591 10.8879 3.70683 10.7918C3.74776 10.6958 3.76406 10.5911 3.75424 10.4871C3.74018 10.3242 3.73159 10.1617 3.73159 9.99883C3.73159 9.83594 3.73979 9.67578 3.75424 9.51641C3.76299 9.4131 3.74589 9.30923 3.7045 9.21418C3.66311 9.11912 3.59872 9.03585 3.51713 8.97187L2.02534 7.8C1.94962 7.73597 1.89885 7.64734 1.88192 7.54964C1.86499 7.45194 1.88299 7.35139 1.93276 7.26562L3.60346 4.375C3.6542 4.28945 3.73351 4.22455 3.82741 4.19175C3.92131 4.15895 4.02377 4.16035 4.11674 4.1957L5.87065 4.90195C5.96737 4.94046 6.07213 4.95438 6.17555 4.94245C6.27897 4.93052 6.37782 4.89311 6.46323 4.83359C6.7309 4.64927 7.01218 4.48552 7.30463 4.34375C7.39658 4.29906 7.4761 4.23242 7.53619 4.14972C7.59628 4.06701 7.63508 3.97078 7.64916 3.86953L7.91206 1.99883C7.92932 1.90003 7.98036 1.8103 8.05646 1.74496C8.13255 1.67963 8.22897 1.64275 8.32924 1.64062H11.6706C11.7693 1.64233 11.8644 1.67758 11.9403 1.74056C12.0162 1.80354 12.0684 1.8905 12.0882 1.98711L12.3507 3.85508C12.3655 3.95745 12.4053 4.05459 12.4666 4.13787C12.5279 4.22114 12.6089 4.28798 12.7023 4.33242C12.9944 4.47342 13.2747 4.63762 13.5406 4.82344C13.6257 4.88266 13.7242 4.91978 13.8272 4.93144C13.9303 4.9431 14.0346 4.92894 14.1308 4.89023L15.8843 4.18438C15.9772 4.14899 16.0797 4.14753 16.1736 4.18026C16.2675 4.21299 16.3468 4.2778 16.3976 4.36328L18.0683 7.25391C18.1185 7.34027 18.1365 7.44165 18.119 7.54001C18.1014 7.63837 18.0496 7.72732 17.9726 7.79102L16.48 8.96289C16.3979 9.02759 16.3333 9.1118 16.292 9.20786C16.2507 9.30392 16.2341 9.40878 16.2437 9.51289C16.2566 9.67461 16.2652 9.83711 16.2652 10Z" stroke="white" stroke-width="2" stroke-linecap="round" stroke-linejoin="round"/>
</g>
<defs>
<clipPath id="clip0_89_1476">
<rect width="20" height="20" fill="white"/>
</clipPath>
</defs>
</svg>
