<svg width="22" height="22" viewBox="0 0 22 22" fill="none" xmlns="http://www.w3.org/2000/svg">
<path d="M22 3.4375C22 3.6237 21.932 3.78483 21.7959 3.9209L18.7021 7.01465C18.5661 7.15072 18.4049 7.21875 18.2188 7.21875C18.0111 7.21875 17.8392 7.13997 17.7031 6.98242L12.3105 12.375H13.0625C13.2487 12.375 13.4098 12.443 13.5459 12.5791C13.682 12.7152 13.75 12.8763 13.75 13.0625V14.4375C13.75 14.724 13.6963 14.9925 13.5889 15.2432C13.4814 15.4938 13.3346 15.7122 13.1484 15.8984C12.9622 16.0846 12.7438 16.2314 12.4932 16.3389C12.2425 16.4463 11.974 16.5 11.6875 16.5C11.5013 16.5 11.3402 16.568 11.2041 16.7041C11.068 16.8402 11 17.0013 11 17.1875C11 17.8535 10.8747 18.4766 10.624 19.0566C10.3734 19.6367 10.0296 20.1488 9.59277 20.5928C9.15592 21.0368 8.64746 21.3805 8.06738 21.624C7.4873 21.8675 6.86068 21.9928 6.1875 22C5.33529 22 4.5332 21.8389 3.78125 21.5166C3.0293 21.1943 2.37402 20.7503 1.81543 20.1846C1.25684 19.6188 0.816406 18.9635 0.494141 18.2188C0.171875 17.474 0.00716146 16.6719 0 15.8125C0 15.1465 0.125326 14.5234 0.375977 13.9434C0.626628 13.3633 0.970378 12.8512 1.40723 12.4072C1.84408 11.9632 2.35254 11.6195 2.93262 11.376C3.5127 11.1325 4.13932 11.0072 4.8125 11C4.9987 11 5.15983 10.932 5.2959 10.7959C5.43197 10.6598 5.5 10.4987 5.5 10.3125C5.5 9.93294 5.57161 9.57845 5.71484 9.24902C5.85807 8.9196 6.05501 8.62598 6.30566 8.36816C6.55631 8.11035 6.84635 7.91341 7.17578 7.77734C7.50521 7.64128 7.86328 7.56966 8.25 7.5625C8.72266 7.5625 9.15234 7.66992 9.53906 7.88477C9.92578 8.09961 10.2552 8.40039 10.5273 8.78711L15.0176 4.29688C14.86 4.16081 14.7812 3.98893 14.7812 3.78125C14.7812 3.59505 14.8493 3.43392 14.9854 3.29785L18.0791 0.204102C18.2152 0.0680339 18.3763 0 18.5625 0C18.7487 0 18.9098 0.0680339 19.0459 0.204102L21.7959 2.9541C21.932 3.09017 22 3.2513 22 3.4375ZM12.375 13.75H10.6562C10.4701 13.75 10.3089 13.682 10.1729 13.5459L8.4541 11.8271C8.31803 11.6911 8.25 11.5299 8.25 11.3438C8.25 11.1576 8.31803 10.9964 8.4541 10.8604L9.51758 9.79688C9.41732 9.53906 9.2526 9.33138 9.02344 9.17383C8.79427 9.01628 8.53646 8.9375 8.25 8.9375C8.05664 8.9375 7.8776 8.97331 7.71289 9.04492C7.54818 9.11654 7.40495 9.21322 7.2832 9.33496C7.16146 9.45671 7.0612 9.60352 6.98242 9.77539C6.90365 9.94727 6.86784 10.1263 6.875 10.3125C6.875 10.599 6.82129 10.8675 6.71387 11.1182C6.60645 11.3688 6.45964 11.5872 6.27344 11.7734C6.08724 11.9596 5.86881 12.1064 5.61816 12.2139C5.36751 12.3213 5.09896 12.375 4.8125 12.375C4.33984 12.375 3.89583 12.4645 3.48047 12.6436C3.0651 12.8226 2.69987 13.0697 2.38477 13.3848C2.06966 13.6999 1.82259 14.0651 1.64355 14.4805C1.46452 14.8958 1.375 15.3398 1.375 15.8125C1.375 16.4785 1.50033 17.1016 1.75098 17.6816C2.00163 18.2617 2.34538 18.7702 2.78223 19.207C3.21908 19.6439 3.72754 19.9876 4.30762 20.2383C4.8877 20.4889 5.51432 20.6178 6.1875 20.625C6.66016 20.625 7.10417 20.5355 7.51953 20.3564C7.9349 20.1774 8.29655 19.9339 8.60449 19.626C8.91243 19.318 9.1595 18.9528 9.3457 18.5303C9.5319 18.1077 9.625 17.6602 9.625 17.1875C9.625 16.901 9.67871 16.6325 9.78613 16.3818C9.89355 16.1312 10.0404 15.9128 10.2266 15.7266C10.4128 15.5404 10.6312 15.3936 10.8818 15.2861C11.1325 15.1787 11.401 15.125 11.6875 15.125C11.8737 15.125 12.0348 15.057 12.1709 14.9209C12.307 14.7848 12.375 14.6237 12.375 14.4375V13.75ZM10.6562 12.0957L16.7363 6.01562L15.9844 5.26367L9.9043 11.3438L10.6562 12.0957ZM18.2188 5.56445L20.3457 3.4375L18.5625 1.6543L16.4355 3.78125L18.2188 5.56445ZM3.81348 15.7803L4.78027 14.8135L7.18652 17.2197L6.21973 18.1865L3.81348 15.7803ZM5.87598 13.7178L6.84277 12.751L9.24902 15.1572L8.28223 16.124L5.87598 13.7178Z" fill="white"/>
</svg>
