<svg width="18" height="19" viewBox="0 0 18 19" fill="none" xmlns="http://www.w3.org/2000/svg">
<path fill-rule="evenodd" clip-rule="evenodd" d="M1 3.2C1 1.98497 1.98497 1 3.2 1H14.2C15.415 1 16.4 1.98497 16.4 3.2V15.3C16.4 16.515 15.415 17.5 14.2 17.5H3.2C1.98497 17.5 1 16.515 1 15.3V3.2Z" stroke="white" stroke-width="1.65" stroke-linejoin="round"/>
<path fill-rule="evenodd" clip-rule="evenodd" d="M4.30005 6.22502C4.30005 5.76939 4.66941 5.40002 5.12505 5.40002H12.275C12.7307 5.40002 13.1 5.76939 13.1 6.22502C13.1 6.68066 12.7307 7.05002 12.275 7.05002H5.12505C4.66941 7.05002 4.30005 6.68066 4.30005 6.22502Z" fill="white"/>
<path fill-rule="evenodd" clip-rule="evenodd" d="M4.30005 10.625C4.30005 10.1694 4.66941 9.80005 5.12505 9.80005H12.275C12.7307 9.80005 13.1 10.1694 13.1 10.625C13.1 11.0807 12.7307 11.45 12.275 11.45H5.12505C4.66941 11.45 4.30005 11.0807 4.30005 10.625Z" fill="white"/>
</svg>
