<svg width="18" height="17" viewBox="0 0 18 17" fill="none" xmlns="http://www.w3.org/2000/svg">
<path d="M6 2.1L17 1V12C17 12.7956 16.6839 13.5587 16.1213 14.1213C15.5587 14.6839 14.7956 15 14 15C13.2044 15 12.4413 14.6839 11.8787 14.1213C11.3161 13.5587 11 12.7956 11 12C11 11.2044 11.3161 10.4413 11.8787 9.87868C12.4413 9.31607 13.2044 9 14 9C14.77 9 15.47 9.29 16 9.76V5.04L7 6.04V13C7 13.7956 6.68393 14.5587 6.12132 15.1213C5.55871 15.6839 4.79565 16 4 16C3.20435 16 2.44129 15.6839 1.87868 15.1213C1.31607 14.5587 1 13.7956 1 13C1 12.2044 1.31607 11.4413 1.87868 10.8787C2.44129 10.3161 3.20435 10 4 10C4.77 10 5.47 10.29 6 10.76V2.1ZM7 3V5.03L16 4.04V2.09L7 3ZM6 13C6 12.4696 5.78929 11.9609 5.41421 11.5858C5.03914 11.2107 4.53043 11 4 11C3.46957 11 2.96086 11.2107 2.58579 11.5858C2.21071 11.9609 2 12.4696 2 13C2 13.5304 2.21071 14.0391 2.58579 14.4142C2.96086 14.7893 3.46957 15 4 15C4.53043 15 5.03914 14.7893 5.41421 14.4142C5.78929 14.0391 6 13.5304 6 13ZM16 12C16 11.4696 15.7893 10.9609 15.4142 10.5858C15.0391 10.2107 14.5304 10 14 10C13.4696 10 12.9609 10.2107 12.5858 10.5858C12.2107 10.9609 12 11.4696 12 12C12 12.5304 12.2107 13.0391 12.5858 13.4142C12.9609 13.7893 13.4696 14 14 14C14.5304 14 15.0391 13.7893 15.4142 13.4142C15.7893 13.0391 16 12.5304 16 12Z" fill="white" stroke="white"/>
</svg>
