<svg width="21" height="21" viewBox="0 0 21 21" fill="none" xmlns="http://www.w3.org/2000/svg">
<path d="M8.61268 6.09576L9.2983 6.55462L9.2983 6.55462L8.61268 6.09576ZM8.77143 10.8521L9.43254 10.3586L9.43254 10.3586L8.77143 10.8521ZM8.88711 10.9972L8.25965 11.5328C8.44392 11.7487 8.72622 11.8547 9.00702 11.8134L8.88711 10.9972ZM11.7689 10.9972L11.649 11.8134C11.9298 11.8547 12.2121 11.7487 12.3964 11.5328L11.7689 10.9972ZM11.8846 10.8521L11.2235 10.3586L11.2235 10.3586L11.8846 10.8521ZM12.0433 6.09576L12.7289 5.6369L12.7289 5.63689L12.0433 6.09576ZM4.74331 12.6268L5.21402 13.3044C5.56234 13.0624 5.67042 12.5957 5.46395 12.2252L4.74331 12.6268ZM1.00037 19.6778L0.175402 19.6854C0.179596 20.1381 0.547714 20.5028 1.00037 20.5028V19.6778ZM5.35686 19.6778V20.5028C5.57877 20.5028 5.79133 20.4134 5.94653 20.2548C6.10173 20.0962 6.18649 19.8817 6.18167 19.6599L5.35686 19.6778ZM8.18548 15.6666L8.46993 14.8922C8.27436 14.8204 8.05886 14.8252 7.8667 14.9057L8.18548 15.6666ZM12.4705 15.6666L12.7893 14.9057C12.5971 14.8252 12.3816 14.8204 12.1861 14.8922L12.4705 15.6666ZM15.2991 19.6778L14.4743 19.6599C14.4695 19.8817 14.5543 20.0962 14.7095 20.2548C14.8647 20.4134 15.0772 20.5028 15.2991 20.5028V19.6778ZM19.6556 19.6778V20.5028C20.1083 20.5028 20.4764 20.1381 20.4806 19.6854L19.6556 19.6778ZM15.9127 12.6268L15.192 12.2252C14.9856 12.5957 15.0937 13.0624 15.442 13.3044L15.9127 12.6268ZM16.8746 9.20813L16.8795 8.38315C16.4274 8.38046 16.0574 8.74219 16.0498 9.19425L16.8746 9.20813ZM16.8754 9.20814L16.8705 10.0331C17.0902 10.0344 17.3013 9.94809 17.4571 9.79323C17.6129 9.63838 17.7004 9.42779 17.7004 9.20814H16.8754ZM15.6634 3.67297L16.349 3.21411V3.21411L15.6634 3.67297ZM4.99262 3.67297L5.67824 4.13183L4.99262 3.67297ZM3.78112 7.83063L4.36162 8.41684C4.5157 8.26426 4.60351 8.05715 4.60606 7.84032L3.78112 7.83063ZM3.78056 7.83118L3.20005 7.24497C3.04359 7.39991 2.95556 7.61098 2.95556 7.83118H3.78056ZM8.0322 7.92614L8.57081 8.55106C8.83202 8.32593 8.92565 7.9621 8.80557 7.63885C8.68549 7.31561 8.37703 7.10114 8.0322 7.10114V7.92614ZM3.87842 7.92614V7.10114C3.54017 7.10114 3.23619 7.30761 3.11151 7.62205C2.98683 7.93649 3.06672 8.29517 3.31306 8.52697L3.87842 7.92614ZM8.96156 7.92614C8.96156 7.38957 9.09612 6.85672 9.2983 6.55462L7.92707 5.6369C7.48174 6.30228 7.31156 7.19412 7.31156 7.92614H8.96156ZM8.96156 7.95512V7.92614H7.31156V7.95512H8.96156ZM8.96156 7.99803V7.95512H7.31156V7.99803H8.96156ZM8.96156 8.00998V7.99803H7.31156V8.00998H8.96156ZM8.96156 8.01304V8.00998H7.31156V8.01304H8.96156ZM8.96156 8.01614V8.01304H7.31156V8.01614H8.96156ZM8.96156 8.01927V8.01614H7.31156V8.01927H8.96156ZM8.96156 8.02243V8.01927H7.31156V8.02243H8.96156ZM8.96156 8.02562V8.02243H7.31156V8.02562H8.96156ZM8.96156 8.02884V8.02562H7.31156V8.02884H8.96156ZM8.96156 8.0321V8.02884H7.31156V8.0321H8.96156ZM8.96156 8.03539V8.0321H7.31156V8.03539H8.96156ZM8.96156 8.03871V8.03539H7.31156V8.03871H8.96156ZM8.96156 8.04206V8.03871H7.31156V8.04206H8.96156ZM8.96156 8.04545V8.04206H7.31156V8.04545H8.96156ZM8.96156 8.04887V8.04545H7.31156V8.04887H8.96156ZM8.96156 8.05233V8.04887H7.31156V8.05233H8.96156ZM8.96156 8.05581V8.05233H7.31156V8.05581H8.96156ZM8.96156 8.05933V8.05581H7.31156V8.05933H8.96156ZM8.96156 8.06289V8.05933H7.31156V8.06289H8.96156ZM8.96156 8.06647V8.06289H7.31156V8.06647H8.96156ZM8.96156 8.07009V8.06647H7.31156V8.07009H8.96156ZM8.96156 8.07375V8.07009H7.31156V8.07375H8.96156ZM8.96156 8.07744V8.07375H7.31156V8.07744H8.96156ZM8.96156 8.08116V8.07744H7.31156V8.08116H8.96156ZM8.96156 8.08492V8.08116H7.31156V8.08492H8.96156ZM8.96156 8.08871V8.08492H7.31156V8.08871H8.96156ZM8.96156 8.09254V8.08871H7.31156V8.09254H8.96156ZM8.96156 8.0964V8.09254H7.31156V8.0964H8.96156ZM8.96156 8.10029V8.0964H7.31156V8.10029H8.96156ZM8.96156 8.10423V8.10029H7.31156V8.10423H8.96156ZM8.96156 8.10819V8.10423H7.31156V8.10819H8.96156ZM8.96156 8.11219V8.10819H7.31156V8.11219H8.96156ZM8.96156 8.11623V8.11219H7.31156V8.11623H8.96156ZM8.96156 8.1203V8.11623H7.31156V8.1203H8.96156ZM8.96156 8.12441V8.1203H7.31156V8.12441H8.96156ZM8.96156 8.12855V8.12441H7.31156V8.12855H8.96156ZM8.96156 8.13273V8.12855H7.31156V8.13273H8.96156ZM8.96156 8.13695V8.13273H7.31156V8.13695H8.96156ZM8.96156 8.1412V8.13695H7.31156V8.1412H8.96156ZM8.96156 8.14549V8.1412H7.31156V8.14549H8.96156ZM8.96156 8.14981V8.14549H7.31156V8.14981H8.96156ZM8.96156 8.15417V8.14981H7.31156V8.15417H8.96156ZM8.96156 8.15857V8.15417H7.31156V8.15857H8.96156ZM8.96156 8.16301V8.15857H7.31156V8.16301H8.96156ZM8.96156 8.16748V8.16301H7.31156V8.16748H8.96156ZM8.96156 8.17199V8.16748H7.31156V8.17199H8.96156ZM8.96156 8.17653V8.17199H7.31156V8.17653H8.96156ZM8.96156 8.18111V8.17653H7.31156V8.18111H8.96156ZM8.96156 8.18573V8.18111H7.31156V8.18573H8.96156ZM8.96156 8.19039V8.18573H7.31156V8.19039H8.96156ZM8.96156 8.19509V8.19039H7.31156V8.19509H8.96156ZM8.96156 8.19982V8.19509H7.31156V8.19982H8.96156ZM8.96156 8.20459V8.19982H7.31156V8.20459H8.96156ZM8.96156 8.2094V8.20459H7.31156V8.2094H8.96156ZM8.96156 8.21425V8.2094H7.31156V8.21425H8.96156ZM8.96156 8.21914V8.21425H7.31156V8.21914H8.96156ZM8.96156 8.22406V8.21914H7.31156V8.22406H8.96156ZM8.96156 8.22903V8.22406H7.31156V8.22903H8.96156ZM8.96156 8.23403V8.22903H7.31156V8.23403H8.96156ZM8.96156 8.23907V8.23403H7.31156V8.23907H8.96156ZM8.96156 8.24415V8.23907H7.31156V8.24415H8.96156ZM8.96156 8.24927V8.24415H7.31156V8.24927H8.96156ZM8.96156 8.25443V8.24927H7.31156V8.25443H8.96156ZM8.96156 8.25963V8.25443H7.31156V8.25963H8.96156ZM8.96156 8.26487V8.25963H7.31156V8.26487H8.96156ZM8.96156 8.27015V8.26487H7.31156V8.27015H8.96156ZM8.96156 8.27547V8.27015H7.31156V8.27547H8.96156ZM8.96156 8.28083V8.27547H7.31156V8.28083H8.96156ZM8.96156 8.28622V8.28083H7.31156V8.28622H8.96156ZM8.96156 8.29166V8.28622H7.31156V8.29166H8.96156ZM8.96156 8.29714V8.29166H7.31156V8.29714H8.96156ZM8.96156 8.30266V8.29714H7.31156V8.30266H8.96156ZM8.96156 8.30822V8.30266H7.31156V8.30822H8.96156ZM8.96156 8.31382V8.30822H7.31156V8.31382H8.96156ZM8.96156 8.31946V8.31382H7.31156V8.31946H8.96156ZM8.96156 8.32515V8.31946H7.31156V8.32515H8.96156ZM8.96156 8.33087V8.32515H7.31156V8.33087H8.96156ZM8.96156 8.33664V8.33087H7.31156V8.33664H8.96156ZM8.96156 8.34244V8.33664H7.31156V8.34244H8.96156ZM8.96156 8.34829V8.34244H7.31156V8.34829H8.96156ZM8.96156 8.35418V8.34829H7.31156V8.35418H8.96156ZM8.96156 8.36011V8.35418H7.31156V8.36011H8.96156ZM8.96156 8.36609V8.36011H7.31156V8.36609H8.96156ZM8.96156 8.37211V8.36609H7.31156V8.37211H8.96156ZM8.96156 8.37816V8.37211H7.31156V8.37816H8.96156ZM8.96156 8.38426V8.37816H7.31156V8.38426H8.96156ZM8.96156 8.39041V8.38426H7.31156V8.39041H8.96156ZM8.96156 8.39659V8.39041H7.31156V8.39659H8.96156ZM8.96156 8.40282V8.39659H7.31156V8.40282H8.96156ZM8.96156 8.4091V8.40282H7.31156V8.4091H8.96156ZM8.96156 8.41541V8.4091H7.31156V8.41541H8.96156ZM8.96156 8.42177V8.41541H7.31156V8.42177H8.96156ZM8.96156 8.42817V8.42177H7.31156V8.42817H8.96156ZM8.96156 8.43461V8.42817H7.31156V8.43461H8.96156ZM8.96156 8.4411V8.43461H7.31156V8.4411H8.96156ZM8.96156 8.44764V8.4411H7.31156V8.44764H8.96156ZM8.96156 8.45421V8.44764H7.31156V8.45421H8.96156ZM8.96156 8.46083V8.45421H7.31156V8.46083H8.96156ZM8.96156 8.4675V8.46083H7.31156V8.4675H8.96156ZM8.96156 8.4742V8.4675H7.31156V8.4742H8.96156ZM8.96156 8.48096V8.4742H7.31156V8.48096H8.96156ZM8.96156 8.48775V8.48096H7.31156V8.48775H8.96156ZM8.96156 8.4946V8.48775H7.31156V8.4946H8.96156ZM8.96156 8.50148V8.4946H7.31156V8.50148H8.96156ZM8.96156 8.50842V8.50148H7.31156V8.50842H8.96156ZM8.96156 8.51539V8.50842H7.31156V8.51539H8.96156ZM8.96156 8.52241V8.51539H7.31156V8.52241H8.96156ZM8.96156 8.52948V8.52241H7.31156V8.52948H8.96156ZM8.96156 8.53659V8.52948H7.31156V8.53659H8.96156ZM8.96156 8.54375V8.53659H7.31156V8.54375H8.96156ZM8.96156 8.55096V8.54375H7.31156V8.55096H8.96156ZM8.96156 8.55821V8.55096H7.31156V8.55821H8.96156ZM8.96156 8.5655V8.55821H7.31156V8.5655H8.96156ZM8.96156 8.57284V8.5655H7.31156V8.57284H8.96156ZM8.96156 8.58023V8.57284H7.31156V8.58023H8.96156ZM8.96156 8.58767V8.58023H7.31156V8.58767H8.96156ZM8.96156 8.59515V8.58767H7.31156V8.59515H8.96156ZM8.96156 8.60268V8.59515H7.31156V8.60268H8.96156ZM8.96156 8.61025V8.60268H7.31156V8.61025H8.96156ZM8.96156 8.61787V8.61025H7.31156V8.61787H8.96156ZM8.96156 8.62554V8.61787H7.31156V8.62554H8.96156ZM8.96156 8.63326V8.62554H7.31156V8.63326H8.96156ZM8.96156 8.64102V8.63326H7.31156V8.64102H8.96156ZM8.96156 8.64883V8.64102H7.31156V8.64883H8.96156ZM8.96156 8.65669V8.64883H7.31156V8.65669H8.96156ZM8.96156 8.66459V8.65669H7.31156V8.66459H8.96156ZM8.96156 8.67255V8.66459H7.31156V8.67255H8.96156ZM8.96156 8.68055V8.67255H7.31156V8.68055H8.96156ZM8.96156 8.6886V8.68055H7.31156V8.6886H8.96156ZM8.96156 8.6967V8.6886H7.31156V8.6967H8.96156ZM8.96156 8.70484V8.6967H7.31156V8.70484H8.96156ZM8.96156 8.71304V8.70484H7.31156V8.71304H8.96156ZM8.96156 8.72128V8.71304H7.31156V8.72128H8.96156ZM8.96156 8.72957V8.72128H7.31156V8.72957H8.96156ZM8.96156 8.73791V8.72957H7.31156V8.73791H8.96156ZM8.96156 8.7463V8.73791H7.31156V8.7463H8.96156ZM8.96156 8.75474V8.7463H7.31156V8.75474H8.96156ZM8.96156 8.76323V8.75474H7.31156V8.76323H8.96156ZM8.96156 8.77177V8.76323H7.31156V8.77177H8.96156ZM8.96156 8.78036V8.77177H7.31156V8.78036H8.96156ZM8.96156 8.78899V8.78036H7.31156V8.78899H8.96156ZM8.96156 8.79768V8.78899H7.31156V8.79768H8.96156ZM8.96156 8.80642V8.79768H7.31156V8.80642H8.96156ZM8.96156 8.81521V8.80642H7.31156V8.81521H8.96156ZM8.96156 8.82404V8.81521H7.31156V8.82404H8.96156ZM8.96156 8.83293V8.82404H7.31156V8.83293H8.96156ZM8.96156 8.84187V8.83293H7.31156V8.84187H8.96156ZM8.96156 8.85086V8.84187H7.31156V8.85086H8.96156ZM8.96156 8.8599V8.85086H7.31156V8.8599H8.96156ZM8.96156 8.86899V8.8599H7.31156V8.86899H8.96156ZM8.96156 8.87813V8.86899H7.31156V8.87813H8.96156ZM8.96156 8.88732V8.87813H7.31156V8.88732H8.96156ZM8.96156 8.89657V8.88732H7.31156V8.89657H8.96156ZM8.96156 8.90586V8.89657H7.31156V8.90586H8.96156ZM8.96156 8.91521V8.90586H7.31156V8.91521H8.96156ZM8.96156 8.92461V8.91521H7.31156V8.92461H8.96156ZM8.96156 8.93406V8.92461H7.31156V8.93406H8.96156ZM8.96156 8.94356V8.93406H7.31156V8.94356H8.96156ZM8.96156 8.95311V8.94356H7.31156V8.95311H8.96156ZM8.96156 8.96272V8.95311H7.31156V8.96272H8.96156ZM8.96156 8.97238V8.96272H7.31156V8.97238H8.96156ZM8.96156 8.98209V8.97238H7.31156V8.98209H8.96156ZM8.96156 8.99185V8.98209H7.31156V8.99185H8.96156ZM8.96156 9.00167V8.99185H7.31156V9.00167H8.96156ZM8.96156 9.01154V9.00167H7.31156V9.01154H8.96156ZM8.96156 9.02146V9.01154H7.31156V9.02146H8.96156ZM8.96156 9.03144V9.02146H7.31156V9.03144H8.96156ZM8.96156 9.04147V9.03144H7.31156V9.04147H8.96156ZM8.96156 9.05155V9.04147H7.31156V9.05155H8.96156ZM8.96156 9.06169V9.05155H7.31156V9.06169H8.96156ZM8.96156 9.07188V9.06169H7.31156V9.07188H8.96156ZM8.96156 9.08212V9.07188H7.31156V9.08212H8.96156ZM8.96156 9.09242V9.08212H7.31156V9.09242H8.96156ZM8.96156 9.10277V9.09242H7.31156V9.10277H8.96156ZM8.96156 9.11318V9.10277H7.31156V9.11318H8.96156ZM9.43254 10.3586C9.09411 9.9052 8.96156 9.34643 8.96156 9.11318H7.31156C7.31156 9.70732 7.56218 10.6113 8.11031 11.3456L9.43254 10.3586ZM9.51457 10.4615C9.48745 10.4297 9.4601 10.3955 9.43254 10.3586L8.11031 11.3456C8.15812 11.4096 8.20785 11.4721 8.25965 11.5328L9.51457 10.4615ZM10.328 10.067C9.80031 10.067 9.27875 10.1058 8.7672 10.1809L9.00702 11.8134C9.43984 11.7498 9.88125 11.717 10.328 11.717V10.067ZM11.8888 10.1809C11.3773 10.1058 10.8557 10.067 10.328 10.067V11.717C10.7747 11.717 11.2162 11.7498 11.649 11.8134L11.8888 10.1809ZM11.2235 10.3586C11.1959 10.3955 11.1686 10.4297 11.1414 10.4615L12.3964 11.5328C12.4482 11.4721 12.4979 11.4096 12.5457 11.3456L11.2235 10.3586ZM11.6944 9.11318C11.6944 9.34643 11.5619 9.9052 11.2235 10.3586L12.5457 11.3456C13.0938 10.6113 13.3444 9.70732 13.3444 9.11318H11.6944ZM11.6944 9.1115V9.11318H13.3444V9.1115H11.6944ZM11.6944 9.10938V9.1115H13.3444V9.10938H11.6944ZM11.6944 9.10723V9.10938H13.3444V9.10723H11.6944ZM11.6944 9.10505V9.10723H13.3444V9.10505H11.6944ZM11.6944 9.10284V9.10505H13.3444V9.10284H11.6944ZM11.6944 9.10061V9.10284H13.3444V9.10061H11.6944ZM11.6944 9.09835V9.10061H13.3444V9.09835H11.6944ZM11.6944 9.09606V9.09835H13.3444V9.09606H11.6944ZM11.6944 9.09375V9.09606H13.3444V9.09375H11.6944ZM11.6944 9.0914V9.09375H13.3444V9.0914H11.6944ZM11.6944 9.08903V9.0914H13.3444V9.08903H11.6944ZM11.6944 9.08663V9.08903H13.3444V9.08663H11.6944ZM11.6944 9.0842V9.08663H13.3444V9.0842H11.6944ZM11.6944 9.08174V9.0842H13.3444V9.08174H11.6944ZM11.6944 9.07925V9.08174H13.3444V9.07925H11.6944ZM11.6944 9.07673V9.07925H13.3444V9.07673H11.6944ZM11.6944 9.07418V9.07673H13.3444V9.07418H11.6944ZM11.6944 9.07161V9.07418H13.3444V9.07161H11.6944ZM11.6944 9.069V9.07161H13.3444V9.069H11.6944ZM11.6944 9.06636V9.069H13.3444V9.06636H11.6944ZM11.6944 9.0637V9.06636H13.3444V9.0637H11.6944ZM11.6944 9.061V9.0637H13.3444V9.061H11.6944ZM11.6944 9.05828V9.061H13.3444V9.05828H11.6944ZM11.6944 9.05552V9.05828H13.3444V9.05552H11.6944ZM11.6944 9.05274V9.05552H13.3444V9.05274H11.6944ZM11.6944 9.04992V9.05274H13.3444V9.04992H11.6944ZM11.6944 9.04707V9.04992H13.3444V9.04707H11.6944ZM11.6944 9.0442V9.04707H13.3444V9.0442H11.6944ZM11.6944 9.04129V9.0442H13.3444V9.04129H11.6944ZM11.6944 9.03835V9.04129H13.3444V9.03835H11.6944ZM11.6944 9.03538V9.03835H13.3444V9.03538H11.6944ZM11.6944 9.03237V9.03538H13.3444V9.03237H11.6944ZM11.6944 9.02934V9.03237H13.3444V9.02934H11.6944ZM11.6944 9.02628V9.02934H13.3444V9.02628H11.6944ZM11.6944 9.02318V9.02628H13.3444V9.02318H11.6944ZM11.6944 9.02005V9.02318H13.3444V9.02005H11.6944ZM11.6944 9.01689V9.02005H13.3444V9.01689H11.6944ZM11.6944 9.0137V9.01689H13.3444V9.0137H11.6944ZM11.6944 9.01047V9.0137H13.3444V9.01047H11.6944ZM11.6944 9.00722V9.01047H13.3444V9.00722H11.6944ZM11.6944 9.00393V9.00722H13.3444V9.00393H11.6944ZM11.6944 9.00061V9.00393H13.3444V9.00061H11.6944ZM11.6944 8.99725V9.00061H13.3444V8.99725H11.6944ZM11.6944 8.99386V8.99725H13.3444V8.99386H11.6944ZM11.6944 8.99044V8.99386H13.3444V8.99044H11.6944ZM11.6944 8.98699V8.99044H13.3444V8.98699H11.6944ZM11.6944 8.9835V8.98699H13.3444V8.9835H11.6944ZM11.6944 8.97998V8.9835H13.3444V8.97998H11.6944ZM11.6944 8.97643V8.97998H13.3444V8.97643H11.6944ZM11.6944 8.97284V8.97643H13.3444V8.97284H11.6944ZM11.6944 8.96922V8.97284H13.3444V8.96922H11.6944ZM11.6944 8.96557V8.96922H13.3444V8.96557H11.6944ZM11.6944 8.96188V8.96557H13.3444V8.96188H11.6944ZM11.6944 8.95816V8.96188H13.3444V8.95816H11.6944ZM11.6944 8.9544V8.95816H13.3444V8.9544H11.6944ZM11.6944 8.95061V8.9544H13.3444V8.95061H11.6944ZM11.6944 8.94678V8.95061H13.3444V8.94678H11.6944ZM11.6944 8.94292V8.94678H13.3444V8.94292H11.6944ZM11.6944 8.93902V8.94292H13.3444V8.93902H11.6944ZM11.6944 8.93509V8.93902H13.3444V8.93509H11.6944ZM11.6944 8.93113V8.93509H13.3444V8.93113H11.6944ZM11.6944 8.92712V8.93113H13.3444V8.92712H11.6944ZM11.6944 8.92309V8.92712H13.3444V8.92309H11.6944ZM11.6944 8.91901V8.92309H13.3444V8.91901H11.6944ZM11.6944 8.91491V8.91901H13.3444V8.91491H11.6944ZM11.6944 8.91076V8.91491H13.3444V8.91076H11.6944ZM11.6944 8.90658V8.91076H13.3444V8.90658H11.6944ZM11.6944 8.90237V8.90658H13.3444V8.90237H11.6944ZM11.6944 8.89812V8.90237H13.3444V8.89812H11.6944ZM11.6944 8.89383V8.89812H13.3444V8.89383H11.6944ZM11.6944 8.8895V8.89383H13.3444V8.8895H11.6944ZM11.6944 8.88514V8.8895H13.3444V8.88514H11.6944ZM11.6944 8.88075V8.88514H13.3444V8.88075H11.6944ZM11.6944 8.87631V8.88075H13.3444V8.87631H11.6944ZM11.6944 8.87184V8.87631H13.3444V8.87184H11.6944ZM11.6944 8.86733V8.87184H13.3444V8.86733H11.6944ZM11.6944 8.86279V8.86733H13.3444V8.86279H11.6944ZM11.6944 8.8582V8.86279H13.3444V8.8582H11.6944ZM11.6944 8.85358V8.8582H13.3444V8.85358H11.6944ZM11.6944 8.84892V8.85358H13.3444V8.84892H11.6944ZM11.6944 8.84423V8.84892H13.3444V8.84423H11.6944ZM11.6944 8.83949V8.84423H13.3444V8.83949H11.6944ZM11.6944 8.83472V8.83949H13.3444V8.83472H11.6944ZM11.6944 8.82991V8.83472H13.3444V8.82991H11.6944ZM11.6944 8.82506V8.82991H13.3444V8.82506H11.6944ZM11.6944 8.82018V8.82506H13.3444V8.82018H11.6944ZM11.6944 8.81525V8.82018H13.3444V8.81525H11.6944ZM11.6944 8.81029V8.81525H13.3444V8.81029H11.6944ZM11.6944 8.80528V8.81029H13.3444V8.80528H11.6944ZM11.6944 8.80024V8.80528H13.3444V8.80024H11.6944ZM11.6944 8.79516V8.80024H13.3444V8.79516H11.6944ZM11.6944 8.79004V8.79516H13.3444V8.79004H11.6944ZM11.6944 8.78488V8.79004H13.3444V8.78488H11.6944ZM11.6944 8.77968V8.78488H13.3444V8.77968H11.6944ZM11.6944 8.77445V8.77968H13.3444V8.77445H11.6944ZM11.6944 8.76917V8.77445H13.3444V8.76917H11.6944ZM11.6944 8.76385V8.76917H13.3444V8.76385H11.6944ZM11.6944 8.75849V8.76385H13.3444V8.75849H11.6944ZM11.6944 8.75309V8.75849H13.3444V8.75309H11.6944ZM11.6944 8.74765V8.75309H13.3444V8.74765H11.6944ZM11.6944 8.74218V8.74765H13.3444V8.74218H11.6944ZM11.6944 8.73666V8.74218H13.3444V8.73666H11.6944ZM11.6944 8.7311V8.73666H13.3444V8.7311H11.6944ZM11.6944 8.72549V8.7311H13.3444V8.72549H11.6944ZM11.6944 8.71985V8.72549H13.3444V8.71985H11.6944ZM11.6944 8.71417V8.71985H13.3444V8.71417H11.6944ZM11.6944 8.70845V8.71417H13.3444V8.70845H11.6944ZM11.6944 8.70268V8.70845H13.3444V8.70268H11.6944ZM11.6944 8.69687V8.70268H13.3444V8.69687H11.6944ZM11.6944 8.69102V8.69687H13.3444V8.69102H11.6944ZM11.6944 8.68513V8.69102H13.3444V8.68513H11.6944ZM11.6944 8.6792V8.68513H13.3444V8.6792H11.6944ZM11.6944 8.67323V8.6792H13.3444V8.67323H11.6944ZM11.6944 8.66721V8.67323H13.3444V8.66721H11.6944ZM11.6944 8.66115V8.66721H13.3444V8.66115H11.6944ZM11.6944 8.65505V8.66115H13.3444V8.65505H11.6944ZM11.6944 8.64891V8.65505H13.3444V8.64891H11.6944ZM11.6944 8.64272V8.64891H13.3444V8.64272H11.6944ZM11.6944 8.63649V8.64272H13.3444V8.63649H11.6944ZM11.6944 8.63022V8.63649H13.3444V8.63022H11.6944ZM11.6944 8.62391V8.63022H13.3444V8.62391H11.6944ZM11.6944 8.61755V8.62391H13.3444V8.61755H11.6944ZM11.6944 8.61115V8.61755H13.3444V8.61115H11.6944ZM11.6944 8.6047V8.61115H13.3444V8.6047H11.6944ZM11.6944 8.59821V8.6047H13.3444V8.59821H11.6944ZM11.6944 8.59168V8.59821H13.3444V8.59168H11.6944ZM11.6944 8.5851V8.59168H13.3444V8.5851H11.6944ZM11.6944 8.57848V8.5851H13.3444V8.57848H11.6944ZM11.6944 8.57182V8.57848H13.3444V8.57182H11.6944ZM11.6944 8.56511V8.57182H13.3444V8.56511H11.6944ZM11.6944 8.55836V8.56511H13.3444V8.55836H11.6944ZM11.6944 8.55156V8.55836H13.3444V8.55156H11.6944ZM11.6944 8.54472V8.55156H13.3444V8.54472H11.6944ZM11.6944 8.53783V8.54472H13.3444V8.53783H11.6944ZM11.6944 8.5309V8.53783H13.3444V8.5309H11.6944ZM11.6944 8.52392V8.5309H13.3444V8.52392H11.6944ZM11.6944 8.5169V8.52392H13.3444V8.5169H11.6944ZM11.6944 8.50983V8.5169H13.3444V8.50983H11.6944ZM11.6944 8.50272V8.50983H13.3444V8.50272H11.6944ZM11.6944 8.49556V8.50272H13.3444V8.49556H11.6944ZM11.6944 8.48836V8.49556H13.3444V8.48836H11.6944ZM11.6944 8.48111V8.48836H13.3444V8.48111H11.6944ZM11.6944 8.47381V8.48111H13.3444V8.47381H11.6944ZM11.6944 8.46647V8.47381H13.3444V8.46647H11.6944ZM11.6944 8.45908V8.46647H13.3444V8.45908H11.6944ZM11.6944 8.45165V8.45908H13.3444V8.45165H11.6944ZM11.6944 8.44417V8.45165H13.3444V8.44417H11.6944ZM11.6944 8.43664V8.44417H13.3444V8.43664H11.6944ZM11.6944 8.42907V8.43664H13.3444V8.42907H11.6944ZM11.6944 8.42144V8.42907H13.3444V8.42144H11.6944ZM11.6944 8.41378V8.42144H13.3444V8.41378H11.6944ZM11.6944 8.40606V8.41378H13.3444V8.40606H11.6944ZM11.6944 8.3983V8.40606H13.3444V8.3983H11.6944ZM11.6944 8.39049V8.3983H13.3444V8.39049H11.6944ZM11.6944 8.38263V8.39049H13.3444V8.38263H11.6944ZM11.6944 8.37472V8.38263H13.3444V8.37472H11.6944ZM11.6944 8.36677V8.37472H13.3444V8.36677H11.6944ZM11.6944 8.35877V8.36677H13.3444V8.35877H11.6944ZM11.6944 8.35072V8.35877H13.3444V8.35072H11.6944ZM11.6944 8.34262V8.35072H13.3444V8.34262H11.6944ZM11.6944 8.33447V8.34262H13.3444V8.33447H11.6944ZM11.6944 8.32628V8.33447H13.3444V8.32628H11.6944ZM11.6944 8.31804V8.32628H13.3444V8.31804H11.6944ZM11.6944 8.30974V8.31804H13.3444V8.30974H11.6944ZM11.6944 8.3014V8.30974H13.3444V8.3014H11.6944ZM11.6944 8.29301V8.3014H13.3444V8.29301H11.6944ZM11.6944 8.28457V8.29301H13.3444V8.28457H11.6944ZM11.6944 8.27608V8.28457H13.3444V8.27608H11.6944ZM11.6944 8.26755V8.27608H13.3444V8.26755H11.6944ZM11.6944 8.25896V8.26755H13.3444V8.25896H11.6944ZM11.6944 8.25032V8.25896H13.3444V8.25032H11.6944ZM11.6944 8.24163V8.25032H13.3444V8.24163H11.6944ZM11.6944 8.2329V8.24163H13.3444V8.2329H11.6944ZM11.6944 8.22411V8.2329H13.3444V8.22411H11.6944ZM11.6944 8.21527V8.22411H13.3444V8.21527H11.6944ZM11.6944 8.20639V8.21527H13.3444V8.20639H11.6944ZM11.6944 8.19745V8.20639H13.3444V8.19745H11.6944ZM11.6944 8.18846V8.19745H13.3444V8.18846H11.6944ZM11.6944 8.17942V8.18846H13.3444V8.17942H11.6944ZM11.6944 8.17033V8.17942H13.3444V8.17033H11.6944ZM11.6944 8.16119V8.17033H13.3444V8.16119H11.6944ZM11.6944 8.15199V8.16119H13.3444V8.15199H11.6944ZM11.6944 8.14275V8.15199H13.3444V8.14275H11.6944ZM11.6944 8.13346V8.14275H13.3444V8.13346H11.6944ZM11.6944 8.12411V8.13346H13.3444V8.12411H11.6944ZM11.6944 8.11471V8.12411H13.3444V8.11471H11.6944ZM11.6944 8.10526V8.11471H13.3444V8.10526H11.6944ZM11.6944 8.09576V8.10526H13.3444V8.09576H11.6944ZM11.6944 8.0862V8.09576H13.3444V8.0862H11.6944ZM11.6944 8.0766V8.0862H13.3444V8.0766H11.6944ZM11.6944 8.06694V8.0766H13.3444V8.06694H11.6944ZM11.6944 8.05723V8.06694H13.3444V8.05723H11.6944ZM11.6944 8.04746V8.05723H13.3444V8.04746H11.6944ZM11.6944 8.03764V8.04746H13.3444V8.03764H11.6944ZM11.6944 8.02778V8.03764H13.3444V8.02778H11.6944ZM11.6944 8.01785V8.02778H13.3444V8.01785H11.6944ZM11.6944 8.00788V8.01785H13.3444V8.00788H11.6944ZM11.6944 7.99785V8.00788H13.3444V7.99785H11.6944ZM11.6944 7.98776V7.99785H13.3444V7.98776H11.6944ZM11.6944 7.97763V7.98776H13.3444V7.97763H11.6944ZM11.6944 7.96744V7.97763H13.3444V7.96744H11.6944ZM11.6944 7.9572V7.96744H13.3444V7.9572H11.6944ZM11.6944 7.9469V7.9572H13.3444V7.9469H11.6944ZM11.6944 7.93655V7.9469H13.3444V7.93655H11.6944ZM11.6944 7.92614V7.93655H13.3444V7.92614H11.6944ZM11.3577 6.55462C11.5599 6.85672 11.6944 7.38957 11.6944 7.92614H13.3444C13.3444 7.19412 13.1743 6.30228 12.7289 5.6369L11.3577 6.55462ZM10.328 6.181C10.7645 6.181 10.9938 6.25982 11.112 6.32253C11.2224 6.38114 11.2903 6.45388 11.3577 6.55462L12.7289 5.63689C12.5606 5.38536 12.306 5.08823 11.8854 4.86502C11.4725 4.64593 10.962 4.531 10.328 4.531V6.181ZM9.2983 6.55462C9.36572 6.45388 9.43355 6.38114 9.544 6.32253C9.66219 6.25982 9.89147 6.181 10.328 6.181V4.531C9.69399 4.531 9.18349 4.64593 8.7706 4.86502C8.34996 5.08823 8.09541 5.38536 7.92706 5.6369L9.2983 6.55462ZM5.46395 12.2252C4.8877 11.1912 4.60556 10.0576 4.60556 9.11318H2.95556C2.95556 10.3572 3.31882 11.7655 4.02267 13.0285L5.46395 12.2252ZM1.825 19.5987C1.825 16.9723 3.16843 14.7255 5.21402 13.3044L4.27259 11.9493C1.83407 13.6435 0.175 16.3726 0.175 19.5987H1.825ZM1.82533 19.6701C1.82511 19.6464 1.825 19.6225 1.825 19.5987H0.175C0.175 19.6276 0.175134 19.6565 0.175402 19.6854L1.82533 19.6701ZM1.00037 20.5028H5.35686V18.8528H1.00037V20.5028ZM4.531 19.5987C4.531 19.631 4.53135 19.6634 4.53206 19.6957L6.18167 19.6599C6.18122 19.6395 6.181 19.6191 6.181 19.5987H4.531ZM7.8667 14.9057C5.86152 15.7458 4.531 17.5992 4.531 19.5987H6.181C6.181 18.3454 7.03384 17.0436 8.50426 16.4276L7.8667 14.9057ZM10.328 15.2143C9.6394 15.2143 9.0211 15.0947 8.46993 14.8922L7.90102 16.441C8.63331 16.71 9.44413 16.8643 10.328 16.8643V15.2143ZM12.1861 14.8922C11.6349 15.0947 11.0166 15.2143 10.328 15.2143V16.8643C11.2119 16.8643 12.0227 16.71 12.755 16.441L12.1861 14.8922ZM16.125 19.5987C16.125 17.5992 14.7945 15.7458 12.7893 14.9057L12.1517 16.4276C13.6222 17.0436 14.475 18.3454 14.475 19.5987H16.125ZM16.1239 19.6957C16.1246 19.6634 16.125 19.631 16.125 19.5987H14.475C14.475 19.6191 14.4748 19.6395 14.4743 19.6599L16.1239 19.6957ZM15.2991 20.5028H19.6556V18.8528H15.2991V20.5028ZM18.831 19.5987C18.831 19.6225 18.8309 19.6464 18.8307 19.6701L20.4806 19.6854C20.4809 19.6565 20.481 19.6276 20.481 19.5987H18.831ZM15.442 13.3044C17.4876 14.7255 18.831 16.9723 18.831 19.5987H20.481C20.481 16.3726 18.8219 13.6435 16.3834 11.9493L15.442 13.3044ZM16.0498 9.19425C16.0341 10.1231 15.7514 11.2216 15.192 12.2252L16.6333 13.0285C17.3173 11.8013 17.6791 10.4379 17.6995 9.22201L16.0498 9.19425ZM16.8803 8.38315L16.8795 8.38315L16.8697 10.0331L16.8705 10.0331L16.8803 8.38315ZM16.0504 9.20812V9.20814H17.7004V9.20812H16.0504ZM16.0504 9.20811V9.20812H17.7004V9.20811H16.0504ZM16.0504 9.20809V9.20811H17.7004V9.20809H16.0504ZM16.0504 9.20807V9.20809H17.7004V9.20807H16.0504ZM16.0504 9.20804V9.20807H17.7004V9.20804H16.0504ZM16.0504 9.20802V9.20804H17.7004V9.20802H16.0504ZM16.0504 9.20798V9.20802H17.7004V9.20798H16.0504ZM16.0504 9.20795V9.20798H17.7004V9.20795H16.0504ZM16.0504 9.20791V9.20795H17.7004V9.20791H16.0504ZM16.0504 9.20787V9.20791H17.7004V9.20787H16.0504ZM16.0504 9.20783V9.20787H17.7004V9.20783H16.0504ZM16.0504 9.20778V9.20783H17.7004V9.20778H16.0504ZM16.0504 9.20774V9.20778H17.7004V9.20774H16.0504ZM16.0504 9.20767V9.20774H17.7004V9.20767H16.0504ZM16.0504 9.20763V9.20767H17.7004V9.20763H16.0504ZM16.0504 9.20755V9.20763H17.7004V9.20755H16.0504ZM16.0504 9.20751V9.20755H17.7004V9.20751H16.0504ZM16.0504 9.20741V9.20751H17.7004V9.20741H16.0504ZM16.0504 9.20737V9.20741H17.7004V9.20737H16.0504ZM16.0504 9.20726V9.20737H17.7004V9.20726H16.0504ZM16.0504 9.20723V9.20726H17.7004V9.20723H16.0504ZM16.0504 9.20709V9.20723H17.7004V9.20709H16.0504ZM16.0504 9.20707V9.20709H17.7004V9.20707H16.0504ZM16.0504 9.2069V9.20707H17.7004V9.2069H16.0504ZM16.0504 9.20672V9.2069H17.7004V9.20672H16.0504ZM16.0504 9.20671V9.20672H17.7004V9.20671H16.0504ZM16.0504 9.20653V9.20671H17.7004V9.20653H16.0504ZM16.0504 9.20649V9.20653H17.7004V9.20649H16.0504ZM16.0504 9.20633V9.20649H17.7004V9.20633H16.0504ZM16.0504 9.20626V9.20633H17.7004V9.20626H16.0504ZM16.0504 9.20611V9.20626H17.7004V9.20611H16.0504ZM16.0504 9.20602V9.20611H17.7004V9.20602H16.0504ZM16.0504 9.20588V9.20602H17.7004V9.20588H16.0504ZM16.0504 9.20576V9.20588H17.7004V9.20576H16.0504ZM16.0504 9.20565V9.20576H17.7004V9.20565H16.0504ZM16.0504 9.20548V9.20565H17.7004V9.20548H16.0504ZM16.0504 9.2054V9.20548H17.7004V9.2054H16.0504ZM16.0504 9.20518V9.2054H17.7004V9.20518H16.0504ZM16.0504 9.20514V9.20518H17.7004V9.20514H16.0504ZM16.0504 9.20487V9.20514H17.7004V9.20487H16.0504ZM16.0504 9.20459V9.20487H17.7004V9.20459H16.0504ZM16.0504 9.20455V9.20459H17.7004V9.20455H16.0504ZM16.0504 9.2043V9.20455H17.7004V9.2043H16.0504ZM16.0504 9.20421V9.2043H17.7004V9.20421H16.0504ZM16.0504 9.204V9.20421H17.7004V9.204H16.0504ZM16.0504 9.20385V9.204H17.7004V9.20385H16.0504ZM16.0504 9.20369V9.20385H17.7004V9.20369H16.0504ZM16.0504 9.20347V9.20369H17.7004V9.20347H16.0504ZM16.0504 9.20336V9.20347H17.7004V9.20336H16.0504ZM16.0504 9.20308V9.20336H17.7004V9.20308H16.0504ZM16.0504 9.20303V9.20308H17.7004V9.20303H16.0504ZM16.0504 9.20269V9.20303H17.7004V9.20269H16.0504ZM16.0504 9.20267V9.20269H17.7004V9.20267H16.0504ZM16.0504 9.20234V9.20267H17.7004V9.20234H16.0504ZM16.0504 9.20224V9.20234H17.7004V9.20224H16.0504ZM16.0504 9.20198V9.20224H17.7004V9.20198H16.0504ZM16.0504 9.2018V9.20198H17.7004V9.2018H16.0504ZM16.0504 9.20161V9.2018H17.7004V9.20161H16.0504ZM16.0504 9.20133V9.20161H17.7004V9.20133H16.0504ZM16.0504 9.20123V9.20133H17.7004V9.20123H16.0504ZM16.0504 9.20086V9.20123H17.7004V9.20086H16.0504ZM16.0504 9.20084V9.20086H17.7004V9.20084H16.0504ZM16.0504 9.20045V9.20084H17.7004V9.20045H16.0504ZM16.0504 9.20036V9.20045H17.7004V9.20036H16.0504ZM16.0504 9.20004V9.20036H17.7004V9.20004H16.0504ZM16.0504 9.19984V9.20004H17.7004V9.19984H16.0504ZM16.0504 9.19963V9.19984H17.7004V9.19963H16.0504ZM16.0504 9.19931V9.19963H17.7004V9.19931H16.0504ZM16.0504 9.19921V9.19931H17.7004V9.19921H16.0504ZM16.0504 9.19877V9.19921H17.7004V9.19877H16.0504ZM16.0504 9.19876V9.19877H17.7004V9.19876H16.0504ZM16.0504 9.19833V9.19876H17.7004V9.19833H16.0504ZM16.0504 9.19819V9.19833H17.7004V9.19819H16.0504ZM16.0504 9.19789V9.19819H17.7004V9.19789H16.0504ZM16.0504 9.1976V9.19789H17.7004V9.1976H16.0504ZM16.0504 9.19743V9.1976H17.7004V9.19743H16.0504ZM16.0504 9.19699V9.19743H17.7004V9.19699H16.0504ZM16.0504 9.19697V9.19699H17.7004V9.19697H16.0504ZM16.0504 9.1965V9.19697H17.7004V9.1965H16.0504ZM16.0504 9.19637V9.1965H17.7004V9.19637H16.0504ZM16.0504 9.19602V9.19637H17.7004V9.19602H16.0504ZM16.0504 9.19573V9.19602H17.7004V9.19573H16.0504ZM16.0504 9.19553V9.19573H17.7004V9.19553H16.0504ZM16.0504 9.19506V9.19553H17.7004V9.19506H16.0504ZM16.0504 9.19503V9.19506H17.7004V9.19503H16.0504ZM16.0504 9.19453V9.19503H17.7004V9.19453H16.0504ZM16.0504 9.19438V9.19453H17.7004V9.19438H16.0504ZM16.0504 9.19403V9.19438H17.7004V9.19403H16.0504ZM16.0504 9.19368V9.19403H17.7004V9.19368H16.0504ZM16.0504 9.19351V9.19368H17.7004V9.19351H16.0504ZM16.0504 9.19299V9.19351H17.7004V9.19299H16.0504ZM16.0504 9.19296V9.19299H17.7004V9.19296H16.0504ZM16.0504 9.19246V9.19296H17.7004V9.19246H16.0504ZM16.0504 9.19222V9.19246H17.7004V9.19222H16.0504ZM16.0504 9.19192V9.19222H17.7004V9.19192H16.0504ZM16.0504 9.19146V9.19192H17.7004V9.19146H16.0504ZM16.0504 9.19138V9.19146H17.7004V9.19138H16.0504ZM16.0504 9.19083V9.19138H17.7004V9.19083H16.0504ZM16.0504 9.19068V9.19083H17.7004V9.19068H16.0504ZM16.0504 9.19028V9.19068H17.7004V9.19028H16.0504ZM16.0504 9.18988V9.19028H17.7004V9.18988H16.0504ZM16.0504 9.18972V9.18988H17.7004V9.18972H16.0504ZM16.0504 9.18915V9.18972H17.7004V9.18915H16.0504ZM16.0504 9.18906V9.18915H17.7004V9.18906H16.0504ZM16.0504 9.18858V9.18906H17.7004V9.18858H16.0504ZM16.0504 9.18822V9.18858H17.7004V9.18822H16.0504ZM16.0504 9.188V9.18822H17.7004V9.188H16.0504ZM16.0504 9.18742V9.188H17.7004V9.18742H16.0504ZM16.0504 9.18737V9.18742H17.7004V9.18737H16.0504ZM16.0504 9.18683V9.18737H17.7004V9.18683H16.0504ZM16.0504 9.18649V9.18683H17.7004V9.18649H16.0504ZM16.0504 9.18623V9.18649H17.7004V9.18623H16.0504ZM16.0504 9.18563V9.18623H17.7004V9.18563H16.0504ZM16.0504 9.18559V9.18563H17.7004V9.18559H16.0504ZM16.0504 9.18503V9.18559H17.7004V9.18503H16.0504ZM16.0504 9.18467V9.18503H17.7004V9.18467H16.0504ZM16.0504 9.18442V9.18467H17.7004V9.18442H16.0504ZM16.0504 9.18381V9.18442H17.7004V9.18381H16.0504ZM16.0504 9.18372V9.18381H17.7004V9.18372H16.0504ZM16.0504 9.18319V9.18372H17.7004V9.18319H16.0504ZM16.0504 9.18276V9.18319H17.7004V9.18276H16.0504ZM16.0504 9.18257V9.18276H17.7004V9.18257H16.0504ZM16.0504 9.18194V9.18257H17.7004V9.18194H16.0504ZM16.0504 9.18178V9.18194H17.7004V9.18178H16.0504ZM16.0504 9.18131V9.18178H17.7004V9.18131H16.0504ZM16.0504 9.18077V9.18131H17.7004V9.18077H16.0504ZM16.0504 9.18067V9.18077H17.7004V9.18067H16.0504ZM16.0504 9.18003V9.18067H17.7004V9.18003H16.0504ZM16.0504 9.17975V9.18003H17.7004V9.17975H16.0504ZM16.0504 9.17939V9.17975H17.7004V9.17939H16.0504ZM16.0504 9.17874V9.17939H17.7004V9.17874H16.0504ZM16.0504 9.1787V9.17874H17.7004V9.1787H16.0504ZM16.0504 9.17809V9.1787H17.7004V9.17809H16.0504ZM16.0504 9.17763V9.17809H17.7004V9.17763H16.0504ZM16.0504 9.17744V9.17763H17.7004V9.17744H16.0504ZM16.0504 9.17678V9.17744H17.7004V9.17678H16.0504ZM16.0504 9.17654V9.17678H17.7004V9.17654H16.0504ZM16.0504 9.17612V9.17654H17.7004V9.17612H16.0504ZM16.0504 9.17546V9.17612H17.7004V9.17546H16.0504ZM16.0504 9.17543V9.17546H17.7004V9.17543H16.0504ZM16.0504 9.17479V9.17543H17.7004V9.17479H16.0504ZM16.0504 9.17429V9.17479H17.7004V9.17429H16.0504ZM16.0504 9.17412V9.17429H17.7004V9.17412H16.0504ZM16.0504 9.17345V9.17412H17.7004V9.17345H16.0504ZM16.0504 9.17314V9.17345H17.7004V9.17314H16.0504ZM16.0504 9.17278V9.17314H17.7004V9.17278H16.0504ZM16.0504 9.1721V9.17278H17.7004V9.1721H16.0504ZM16.0504 9.17196V9.1721H17.7004V9.17196H16.0504ZM16.0504 9.17142V9.17196H17.7004V9.17142H16.0504ZM16.0504 9.17076V9.17142H17.7004V9.17076H16.0504ZM16.0504 9.17074V9.17076H17.7004V9.17074H16.0504ZM16.0504 9.17006V9.17074H17.7004V9.17006H16.0504ZM16.0504 9.16953V9.17006H17.7004V9.16953H16.0504ZM16.0504 9.16938V9.16953H17.7004V9.16938H16.0504ZM16.0504 9.16869V9.16938H17.7004V9.16869H16.0504ZM16.0504 9.16829V9.16869H17.7004V9.16829H16.0504ZM16.0504 9.168V9.16829H17.7004V9.168H16.0504ZM16.0504 9.16731V9.168H17.7004V9.16731H16.0504ZM16.0504 9.16702V9.16731H17.7004V9.16702H16.0504ZM16.0504 9.16662V9.16702H17.7004V9.16662H16.0504ZM16.0504 9.16593V9.16662H17.7004V9.16593H16.0504ZM16.0504 9.16573V9.16593H17.7004V9.16573H16.0504ZM16.0504 9.16524V9.16573H17.7004V9.16524H16.0504ZM16.0504 9.16455V9.16524H17.7004V9.16455H16.0504ZM16.0504 9.16441V9.16455H17.7004V9.16441H16.0504ZM16.0504 9.16385V9.16441H17.7004V9.16385H16.0504ZM16.0504 9.16316V9.16385H17.7004V9.16316H16.0504ZM16.0504 9.16307V9.16316H17.7004V9.16307H16.0504ZM16.0504 9.16247V9.16307H17.7004V9.16247H16.0504ZM16.0504 9.16177V9.16247H17.7004V9.16177H16.0504ZM16.0504 9.16171V9.16177H17.7004V9.16171H16.0504ZM16.0504 9.16107V9.16171H17.7004V9.16107H16.0504ZM16.0504 9.16038V9.16107H17.7004V9.16038H16.0504ZM16.0504 9.16033V9.16038H17.7004V9.16033H16.0504ZM16.0504 9.15968V9.16033H17.7004V9.15968H16.0504ZM16.0504 9.15899V9.15968H17.7004V9.15899H16.0504ZM16.0504 9.15892V9.15899H17.7004V9.15892H16.0504ZM16.0504 9.15829V9.15892H17.7004V9.15829H16.0504ZM16.0504 9.1576V9.15829H17.7004V9.1576H16.0504ZM16.0504 9.15749V9.1576H17.7004V9.15749H16.0504ZM16.0504 9.1569V9.15749H17.7004V9.1569H16.0504ZM16.0504 9.15621V9.1569H17.7004V9.15621H16.0504ZM16.0504 9.15603V9.15621H17.7004V9.15603H16.0504ZM16.0504 9.15552V9.15603H17.7004V9.15552H16.0504ZM16.0504 9.15483V9.15552H17.7004V9.15483H16.0504ZM16.0504 9.15455V9.15483H17.7004V9.15455H16.0504ZM16.0504 9.15414V9.15455H17.7004V9.15414H16.0504ZM16.0504 9.15345V9.15414H17.7004V9.15345H16.0504ZM16.0504 9.15305V9.15345H17.7004V9.15305H16.0504ZM16.0504 9.15276V9.15305H17.7004V9.15276H16.0504ZM16.0504 9.15207V9.15276H17.7004V9.15207H16.0504ZM16.0504 9.15152V9.15207H17.7004V9.15152H16.0504ZM16.0504 9.15139V9.15152H17.7004V9.15139H16.0504ZM16.0504 9.15071V9.15139H17.7004V9.15071H16.0504ZM16.0504 9.15003V9.15071H17.7004V9.15003H16.0504ZM16.0504 9.14996V9.15003H17.7004V9.14996H16.0504ZM16.0504 9.14935V9.14996H17.7004V9.14935H16.0504ZM16.0504 9.14867V9.14935H17.7004V9.14867H16.0504ZM16.0504 9.14839V9.14867H17.7004V9.14839H16.0504ZM16.0504 9.148V9.14839H17.7004V9.148H16.0504ZM16.0504 9.14733V9.148H17.7004V9.14733H16.0504ZM16.0504 9.14679V9.14733H17.7004V9.14679H16.0504ZM16.0504 9.14666V9.14679H17.7004V9.14666H16.0504ZM16.0504 9.14599V9.14666H17.7004V9.14599H16.0504ZM16.0504 9.14533V9.14599H17.7004V9.14533H16.0504ZM16.0504 9.14516V9.14533H17.7004V9.14516H16.0504ZM16.0504 9.14466V9.14516H17.7004V9.14466H16.0504ZM16.0504 9.14401V9.14466H17.7004V9.14401H16.0504ZM16.0504 9.14351V9.14401H17.7004V9.14351H16.0504ZM16.0504 9.14335V9.14351H17.7004V9.14335H16.0504ZM16.0504 9.1427V9.14335H17.7004V9.1427H16.0504ZM16.0504 9.14205V9.1427H17.7004V9.14205H16.0504ZM16.0504 9.14183V9.14205H17.7004V9.14183H16.0504ZM16.0504 9.14141V9.14183H17.7004V9.14141H16.0504ZM16.0504 9.14077V9.14141H17.7004V9.14077H16.0504ZM16.0504 9.14013V9.14077H17.7004V9.14013H16.0504ZM16.0504 9.1395V9.14013H17.7004V9.1395H16.0504ZM16.0504 9.13887V9.1395H17.7004V9.13887H16.0504ZM16.0504 9.1384V9.13887H17.7004V9.1384H16.0504ZM16.0504 9.13825V9.1384H17.7004V9.13825H16.0504ZM16.0504 9.13763V9.13825H17.7004V9.13763H16.0504ZM16.0504 9.13702V9.13763H17.7004V9.13702H16.0504ZM16.0504 9.13665V9.13702H17.7004V9.13665H16.0504ZM16.0504 9.13641V9.13665H17.7004V9.13641H16.0504ZM16.0504 9.1358V9.13641H17.7004V9.1358H16.0504ZM16.0504 9.1352V9.1358H17.7004V9.1352H16.0504ZM16.0504 9.13487V9.1352H17.7004V9.13487H16.0504ZM16.0504 9.13461V9.13487H17.7004V9.13461H16.0504ZM16.0504 9.13402V9.13461H17.7004V9.13402H16.0504ZM16.0504 9.13343V9.13402H17.7004V9.13343H16.0504ZM16.0504 9.13307V9.13343H17.7004V9.13307H16.0504ZM16.0504 9.13285V9.13307H17.7004V9.13285H16.0504ZM16.0504 9.13228V9.13285H17.7004V9.13228H16.0504ZM16.0504 9.13171V9.13228H17.7004V9.13171H16.0504ZM16.0504 9.13124V9.13171H17.7004V9.13124H16.0504ZM16.0504 9.13115V9.13124H17.7004V9.13115H16.0504ZM16.0504 9.13059V9.13115H17.7004V9.13059H16.0504ZM16.0504 9.13004V9.13059H17.7004V9.13004H16.0504ZM16.0504 9.1295V9.13004H17.7004V9.1295H16.0504ZM16.0504 9.12938V9.1295H17.7004V9.12938H16.0504ZM16.0504 9.12896V9.12938H17.7004V9.12896H16.0504ZM16.0504 9.12843V9.12896H17.7004V9.12843H16.0504ZM16.0504 9.12791V9.12843H17.7004V9.12791H16.0504ZM16.0504 9.1275V9.12791H17.7004V9.1275H16.0504ZM16.0504 9.12739V9.1275H17.7004V9.12739H16.0504ZM16.0504 9.12688V9.12739H17.7004V9.12688H16.0504ZM16.0504 9.12638V9.12688H17.7004V9.12638H16.0504ZM16.0504 9.12589V9.12638H17.7004V9.12589H16.0504ZM16.0504 9.1256V9.12589H17.7004V9.1256H16.0504ZM16.0504 9.1254V9.1256H17.7004V9.1254H16.0504ZM16.0504 9.12492V9.1254H17.7004V9.12492H16.0504ZM16.0504 9.12444V9.12492H17.7004V9.12444H16.0504ZM16.0504 9.12398V9.12444H17.7004V9.12398H16.0504ZM16.0504 9.12366V9.12398H17.7004V9.12366H16.0504ZM16.0504 9.12352V9.12366H17.7004V9.12352H16.0504ZM16.0504 9.12307V9.12352H17.7004V9.12307H16.0504ZM16.0504 9.12263V9.12307H17.7004V9.12263H16.0504ZM16.0504 9.1222V9.12263H17.7004V9.1222H16.0504ZM16.0504 9.12177V9.1222H17.7004V9.12177H16.0504ZM16.0504 9.1217V9.12177H17.7004V9.1217H16.0504ZM16.0504 9.12136V9.1217H17.7004V9.12136H16.0504ZM16.0504 9.12095V9.12136H17.7004V9.12095H16.0504ZM16.0504 9.12055V9.12095H17.7004V9.12055H16.0504ZM16.0504 9.12016V9.12055H17.7004V9.12016H16.0504ZM16.0504 9.11978V9.12016H17.7004V9.11978H16.0504ZM16.0504 9.11971V9.11978H17.7004V9.11971H16.0504ZM16.0504 9.11941V9.11971H17.7004V9.11941H16.0504ZM16.0504 9.11905V9.11941H17.7004V9.11905H16.0504ZM16.0504 9.11869V9.11905H17.7004V9.11869H16.0504ZM16.0504 9.11835V9.11869H17.7004V9.11835H16.0504ZM16.0504 9.11802V9.11835H17.7004V9.11802H16.0504ZM16.0504 9.1177V9.11802H17.7004V9.1177H16.0504ZM16.0504 9.11769V9.1177H17.7004V9.11769H16.0504ZM16.0504 9.11738V9.11769H17.7004V9.11738H16.0504ZM16.0504 9.11707V9.11738H17.7004V9.11707H16.0504ZM16.0504 9.11678V9.11707H17.7004V9.11678H16.0504ZM16.0504 9.1165V9.11678H17.7004V9.1165H16.0504ZM16.0504 9.11623V9.1165H17.7004V9.11623H16.0504ZM16.0504 9.11597V9.11623H17.7004V9.11597H16.0504ZM16.0504 9.11572V9.11597H17.7004V9.11572H16.0504ZM16.0504 9.11566V9.11572H17.7004V9.11566H16.0504ZM16.0504 9.11548V9.11566H17.7004V9.11548H16.0504ZM16.0504 9.11525V9.11548H17.7004V9.11525H16.0504ZM16.0504 9.11503V9.11525H17.7004V9.11503H16.0504ZM16.0504 9.11482V9.11503H17.7004V9.11482H16.0504ZM16.0504 9.11463V9.11482H17.7004V9.11463H16.0504ZM16.0504 9.11445V9.11463H17.7004V9.11445H16.0504ZM16.0504 9.11427V9.11445H17.7004V9.11427H16.0504ZM16.0504 9.11412V9.11427H17.7004V9.11412H16.0504ZM16.0504 9.11397V9.11412H17.7004V9.11397H16.0504ZM16.0504 9.11383V9.11397H17.7004V9.11383H16.0504ZM16.0504 9.11371V9.11383H17.7004V9.11371H16.0504ZM16.0504 9.1136V9.11371H17.7004V9.1136H16.0504ZM16.0504 9.1135V9.1136H17.7004V9.1135H16.0504ZM16.0504 9.11342V9.1135H17.7004V9.11342H16.0504ZM16.0504 9.11334V9.11342H17.7004V9.11334H16.0504ZM16.0504 9.11328V9.11334H17.7004V9.11328H16.0504ZM16.0504 9.11324V9.11328H17.7004V9.11324H16.0504ZM16.0504 9.1132V9.11324H17.7004V9.1132H16.0504ZM16.0504 9.11318V9.1132H17.7004V9.11318H16.0504ZM16.0504 9.1115V9.11318H17.7004V9.1115H16.0504ZM16.0504 9.10938V9.1115H17.7004V9.10938H16.0504ZM16.0504 9.10723V9.10938H17.7004V9.10723H16.0504ZM16.0504 9.10505V9.10723H17.7004V9.10505H16.0504ZM16.0504 9.10284V9.10505H17.7004V9.10284H16.0504ZM16.0504 9.10061V9.10284H17.7004V9.10061H16.0504ZM16.0504 9.09835V9.10061H17.7004V9.09835H16.0504ZM16.0504 9.09606V9.09835H17.7004V9.09606H16.0504ZM16.0504 9.09375V9.09606H17.7004V9.09375H16.0504ZM16.0504 9.0914V9.09375H17.7004V9.0914H16.0504ZM16.0504 9.08903V9.0914H17.7004V9.08903H16.0504ZM16.0504 9.08663V9.08903H17.7004V9.08663H16.0504ZM16.0504 9.0842V9.08663H17.7004V9.0842H16.0504ZM16.0504 9.08174V9.0842H17.7004V9.08174H16.0504ZM16.0504 9.07925V9.08174H17.7004V9.07925H16.0504ZM16.0504 9.07673V9.07925H17.7004V9.07673H16.0504ZM16.0504 9.07418V9.07673H17.7004V9.07418H16.0504ZM16.0504 9.07161V9.07418H17.7004V9.07161H16.0504ZM16.0504 9.069V9.07161H17.7004V9.069H16.0504ZM16.0504 9.06636V9.069H17.7004V9.06636H16.0504ZM16.0504 9.0637V9.06636H17.7004V9.0637H16.0504ZM16.0504 9.061V9.0637H17.7004V9.061H16.0504ZM16.0504 9.05828V9.061H17.7004V9.05828H16.0504ZM16.0504 9.05552V9.05828H17.7004V9.05552H16.0504ZM16.0504 9.05274V9.05552H17.7004V9.05274H16.0504ZM16.0504 9.04992V9.05274H17.7004V9.04992H16.0504ZM16.0504 9.04707V9.04992H17.7004V9.04707H16.0504ZM16.0504 9.0442V9.04707H17.7004V9.0442H16.0504ZM16.0504 9.04129V9.0442H17.7004V9.04129H16.0504ZM16.0504 9.03835V9.04129H17.7004V9.03835H16.0504ZM16.0504 9.03538V9.03835H17.7004V9.03538H16.0504ZM16.0504 9.03237V9.03538H17.7004V9.03237H16.0504ZM16.0504 9.02934V9.03237H17.7004V9.02934H16.0504ZM16.0504 9.02628V9.02934H17.7004V9.02628H16.0504ZM16.0504 9.02318V9.02628H17.7004V9.02318H16.0504ZM16.0504 9.02005V9.02318H17.7004V9.02005H16.0504ZM16.0504 9.01689V9.02005H17.7004V9.01689H16.0504ZM16.0504 9.0137V9.01689H17.7004V9.0137H16.0504ZM16.0504 9.01047V9.0137H17.7004V9.01047H16.0504ZM16.0504 9.00722V9.01047H17.7004V9.00722H16.0504ZM16.0504 9.00393V9.00722H17.7004V9.00393H16.0504ZM16.0504 9.00061V9.00393H17.7004V9.00061H16.0504ZM16.0504 8.99725V9.00061H17.7004V8.99725H16.0504ZM16.0504 8.99386V8.99725H17.7004V8.99386H16.0504ZM16.0504 8.99044V8.99386H17.7004V8.99044H16.0504ZM16.0504 8.98699V8.99044H17.7004V8.98699H16.0504ZM16.0504 8.9835V8.98699H17.7004V8.9835H16.0504ZM16.0504 8.97998V8.9835H17.7004V8.97998H16.0504ZM16.0504 8.97643V8.97998H17.7004V8.97643H16.0504ZM16.0504 8.97284V8.97643H17.7004V8.97284H16.0504ZM16.0504 8.96922V8.97284H17.7004V8.96922H16.0504ZM16.0504 8.96557V8.96922H17.7004V8.96557H16.0504ZM16.0504 8.96188V8.96557H17.7004V8.96188H16.0504ZM16.0504 8.95816V8.96188H17.7004V8.95816H16.0504ZM16.0504 8.9544V8.95816H17.7004V8.9544H16.0504ZM16.0504 8.95061V8.9544H17.7004V8.95061H16.0504ZM16.0504 8.94678V8.95061H17.7004V8.94678H16.0504ZM16.0504 8.94292V8.94678H17.7004V8.94292H16.0504ZM16.0504 8.93902V8.94292H17.7004V8.93902H16.0504ZM16.0504 8.93509V8.93902H17.7004V8.93509H16.0504ZM16.0504 8.93113V8.93509H17.7004V8.93113H16.0504ZM16.0504 8.92712V8.93113H17.7004V8.92712H16.0504ZM16.0504 8.92309V8.92712H17.7004V8.92309H16.0504ZM16.0504 8.91901V8.92309H17.7004V8.91901H16.0504ZM16.0504 8.91491V8.91901H17.7004V8.91491H16.0504ZM16.0504 8.91076V8.91491H17.7004V8.91076H16.0504ZM16.0504 8.90658V8.91076H17.7004V8.90658H16.0504ZM16.0504 8.90237V8.90658H17.7004V8.90237H16.0504ZM16.0504 8.89812V8.90237H17.7004V8.89812H16.0504ZM16.0504 8.89383V8.89812H17.7004V8.89383H16.0504ZM16.0504 8.8895V8.89383H17.7004V8.8895H16.0504ZM16.0504 8.88514V8.8895H17.7004V8.88514H16.0504ZM16.0504 8.88075V8.88514H17.7004V8.88075H16.0504ZM16.0504 8.87631V8.88075H17.7004V8.87631H16.0504ZM16.0504 8.87184V8.87631H17.7004V8.87184H16.0504ZM16.0504 8.86733V8.87184H17.7004V8.86733H16.0504ZM16.0504 8.86279V8.86733H17.7004V8.86279H16.0504ZM16.0504 8.8582V8.86279H17.7004V8.8582H16.0504ZM16.0504 8.85358V8.8582H17.7004V8.85358H16.0504ZM16.0504 8.84892V8.85358H17.7004V8.84892H16.0504ZM16.0504 8.84423V8.84892H17.7004V8.84423H16.0504ZM16.0504 8.83949V8.84423H17.7004V8.83949H16.0504ZM16.0504 8.83472V8.83949H17.7004V8.83472H16.0504ZM16.0504 8.82991V8.83472H17.7004V8.82991H16.0504ZM16.0504 8.82506V8.82991H17.7004V8.82506H16.0504ZM16.0504 8.82018V8.82506H17.7004V8.82018H16.0504ZM16.0504 8.81525V8.82018H17.7004V8.81525H16.0504ZM16.0504 8.81029V8.81525H17.7004V8.81029H16.0504ZM16.0504 8.80528V8.81029H17.7004V8.80528H16.0504ZM16.0504 8.80024V8.80528H17.7004V8.80024H16.0504ZM16.0504 8.79516V8.80024H17.7004V8.79516H16.0504ZM16.0504 8.79004V8.79516H17.7004V8.79004H16.0504ZM16.0504 8.78488V8.79004H17.7004V8.78488H16.0504ZM16.0504 8.77968V8.78488H17.7004V8.77968H16.0504ZM16.0504 8.77445V8.77968H17.7004V8.77445H16.0504ZM16.0504 8.76917V8.77445H17.7004V8.76917H16.0504ZM16.0504 8.76385V8.76917H17.7004V8.76385H16.0504ZM16.0504 8.75849V8.76385H17.7004V8.75849H16.0504ZM16.0504 8.75309V8.75849H17.7004V8.75309H16.0504ZM16.0504 8.74765V8.75309H17.7004V8.74765H16.0504ZM16.0504 8.74218V8.74765H17.7004V8.74218H16.0504ZM16.0504 8.73666V8.74218H17.7004V8.73666H16.0504ZM16.0504 8.7311V8.73666H17.7004V8.7311H16.0504ZM16.0504 8.72549V8.7311H17.7004V8.72549H16.0504ZM16.0504 8.71985V8.72549H17.7004V8.71985H16.0504ZM16.0504 8.71417V8.71985H17.7004V8.71417H16.0504ZM16.0504 8.70845V8.71417H17.7004V8.70845H16.0504ZM16.0504 8.70268V8.70845H17.7004V8.70268H16.0504ZM16.0504 8.69687V8.70268H17.7004V8.69687H16.0504ZM16.0504 8.69102V8.69687H17.7004V8.69102H16.0504ZM16.0504 8.68513V8.69102H17.7004V8.68513H16.0504ZM16.0504 8.6792V8.68513H17.7004V8.6792H16.0504ZM16.0504 8.67323V8.6792H17.7004V8.67323H16.0504ZM16.0504 8.66721V8.67323H17.7004V8.66721H16.0504ZM16.0504 8.66115V8.66721H17.7004V8.66115H16.0504ZM16.0504 8.65505V8.66115H17.7004V8.65505H16.0504ZM16.0504 8.64891V8.65505H17.7004V8.64891H16.0504ZM16.0504 8.64272V8.64891H17.7004V8.64272H16.0504ZM16.0504 8.63649V8.64272H17.7004V8.63649H16.0504ZM16.0504 8.63022V8.63649H17.7004V8.63022H16.0504ZM16.0504 8.62391V8.63022H17.7004V8.62391H16.0504ZM16.0504 8.61755V8.62391H17.7004V8.61755H16.0504ZM16.0504 8.61115V8.61755H17.7004V8.61115H16.0504ZM16.0504 8.6047V8.61115H17.7004V8.6047H16.0504ZM16.0504 8.59821V8.6047H17.7004V8.59821H16.0504ZM16.0504 8.59168V8.59821H17.7004V8.59168H16.0504ZM16.0504 8.5851V8.59168H17.7004V8.5851H16.0504ZM16.0504 8.57848V8.5851H17.7004V8.57848H16.0504ZM16.0504 8.57182V8.57848H17.7004V8.57182H16.0504ZM16.0504 8.56511V8.57182H17.7004V8.56511H16.0504ZM16.0504 8.55836V8.56511H17.7004V8.55836H16.0504ZM16.0504 8.55156V8.55836H17.7004V8.55156H16.0504ZM16.0504 8.54472V8.55156H17.7004V8.54472H16.0504ZM16.0504 8.53783V8.54472H17.7004V8.53783H16.0504ZM16.0504 8.5309V8.53783H17.7004V8.5309H16.0504ZM16.0504 8.52392V8.5309H17.7004V8.52392H16.0504ZM16.0504 8.5169V8.52392H17.7004V8.5169H16.0504ZM16.0504 8.50983V8.5169H17.7004V8.50983H16.0504ZM16.0504 8.50272V8.50983H17.7004V8.50272H16.0504ZM16.0504 8.49556V8.50272H17.7004V8.49556H16.0504ZM16.0504 8.48836V8.49556H17.7004V8.48836H16.0504ZM16.0504 8.48111V8.48836H17.7004V8.48111H16.0504ZM16.0504 8.47381V8.48111H17.7004V8.47381H16.0504ZM16.0504 8.46647V8.47381H17.7004V8.46647H16.0504ZM16.0504 8.45908V8.46647H17.7004V8.45908H16.0504ZM16.0504 8.45165V8.45908H17.7004V8.45165H16.0504ZM16.0504 8.44417V8.45165H17.7004V8.44417H16.0504ZM16.0504 8.43664V8.44417H17.7004V8.43664H16.0504ZM16.0504 8.42907V8.43664H17.7004V8.42907H16.0504ZM16.0504 8.42144V8.42907H17.7004V8.42144H16.0504ZM16.0504 8.41378V8.42144H17.7004V8.41378H16.0504ZM16.0504 8.40606V8.41378H17.7004V8.40606H16.0504ZM16.0504 8.3983V8.40606H17.7004V8.3983H16.0504ZM16.0504 8.39049V8.3983H17.7004V8.39049H16.0504ZM16.0504 8.38263V8.39049H17.7004V8.38263H16.0504ZM16.0504 8.37472V8.38263H17.7004V8.37472H16.0504ZM16.0504 8.36677V8.37472H17.7004V8.36677H16.0504ZM16.0504 8.35877V8.36677H17.7004V8.35877H16.0504ZM16.0504 8.35072V8.35877H17.7004V8.35072H16.0504ZM16.0504 8.34262V8.35072H17.7004V8.34262H16.0504ZM16.0504 8.33447V8.34262H17.7004V8.33447H16.0504ZM16.0504 8.32628V8.33447H17.7004V8.32628H16.0504ZM16.0504 8.31804V8.32628H17.7004V8.31804H16.0504ZM16.0504 8.30974V8.31804H17.7004V8.30974H16.0504ZM16.0504 8.3014V8.30974H17.7004V8.3014H16.0504ZM16.0504 8.29301V8.3014H17.7004V8.29301H16.0504ZM16.0504 8.28457V8.29301H17.7004V8.28457H16.0504ZM16.0504 8.27608V8.28457H17.7004V8.27608H16.0504ZM16.0504 8.26755V8.27608H17.7004V8.26755H16.0504ZM16.0504 8.25896V8.26755H17.7004V8.25896H16.0504ZM16.0504 8.25032V8.25896H17.7004V8.25032H16.0504ZM16.0504 8.24163V8.25032H17.7004V8.24163H16.0504ZM16.0504 8.2329V8.24163H17.7004V8.2329H16.0504ZM16.0504 8.22411V8.2329H17.7004V8.22411H16.0504ZM16.0504 8.21527V8.22411H17.7004V8.21527H16.0504ZM16.0504 8.20639V8.21527H17.7004V8.20639H16.0504ZM16.0504 8.19745V8.20639H17.7004V8.19745H16.0504ZM16.0504 8.18846V8.19745H17.7004V8.18846H16.0504ZM16.0504 8.17942V8.18846H17.7004V8.17942H16.0504ZM16.0504 8.17033V8.17942H17.7004V8.17033H16.0504ZM16.0504 8.16119V8.17033H17.7004V8.16119H16.0504ZM16.0504 8.15199V8.16119H17.7004V8.15199H16.0504ZM16.0504 8.14275V8.15199H17.7004V8.14275H16.0504ZM16.0504 8.13346V8.14275H17.7004V8.13346H16.0504ZM16.0504 8.12411V8.13346H17.7004V8.12411H16.0504ZM16.0504 8.11471V8.12411H17.7004V8.11471H16.0504ZM16.0504 8.10526V8.11471H17.7004V8.10526H16.0504ZM16.0504 8.09576V8.10526H17.7004V8.09576H16.0504ZM16.0504 8.0862V8.09576H17.7004V8.0862H16.0504ZM16.0504 8.0766V8.0862H17.7004V8.0766H16.0504ZM16.0504 8.06694V8.0766H17.7004V8.06694H16.0504ZM16.0504 8.05723V8.06694H17.7004V8.05723H16.0504ZM16.0504 8.04746V8.05723H17.7004V8.04746H16.0504ZM16.0504 8.03764V8.04746H17.7004V8.03764H16.0504ZM16.0504 8.02778V8.03764H17.7004V8.02778H16.0504ZM16.0504 8.01785V8.02778H17.7004V8.01785H16.0504ZM16.0504 8.00788V8.01785H17.7004V8.00788H16.0504ZM16.0504 7.99785V8.00788H17.7004V7.99785H16.0504ZM16.0504 7.98776V7.99785H17.7004V7.98776H16.0504ZM16.0504 7.97763V7.98776H17.7004V7.97763H16.0504ZM16.0504 7.96744V7.97763H17.7004V7.96744H16.0504ZM16.0504 7.9572V7.96744H17.7004V7.9572H16.0504ZM16.0504 7.9469V7.9572H17.7004V7.9469H16.0504ZM16.0504 7.93655V7.9469H17.7004V7.93655H16.0504ZM16.0504 7.92614V7.93655H17.7004V7.92614H16.0504ZM14.9778 4.13183C15.823 5.39474 16.0504 6.87652 16.0504 7.92614H17.7004C17.7004 6.68325 17.4382 4.84158 16.349 3.21411L14.9778 4.13183ZM10.328 1.825C12.561 1.825 14.0778 2.78717 14.9778 4.13183L16.349 3.21411C15.1385 1.40544 13.1039 0.175 10.328 0.175V1.825ZM5.67824 4.13183C6.57818 2.78717 8.09499 1.825 10.328 1.825V0.175C7.5521 0.175 5.51748 1.40544 4.30701 3.21411L5.67824 4.13183ZM4.60606 7.84032C4.61835 6.79454 4.85656 5.35956 5.67824 4.13183L4.30701 3.21411C3.24733 4.79745 2.97072 6.58315 2.95618 7.82093L4.60606 7.84032ZM4.36106 8.41739L4.36162 8.41684L3.20062 7.24441L3.20005 7.24497L4.36106 8.41739ZM4.60556 7.83119V7.83118H2.95556V7.83119H4.60556ZM4.60556 7.83125V7.83119H2.95556V7.83125H4.60556ZM4.60556 7.83133V7.83125H2.95556V7.83133H4.60556ZM4.60556 7.83224V7.83133H2.95556V7.83224H4.60556ZM4.60556 7.83384V7.83224H2.95556V7.83384H4.60556ZM4.60556 7.85195V7.83384H2.95556V7.85195H4.60556ZM4.60556 7.86122V7.85195H2.95556V7.86122H4.60556ZM4.60556 7.8831V7.86122H2.95556V7.8831H4.60556ZM4.60556 7.8838V7.8831H2.95556V7.8838H4.60556ZM4.60556 7.88449V7.8838H2.95556V7.88449H4.60556ZM4.60556 7.88518V7.88449H2.95556V7.88518H4.60556ZM4.60556 7.88587V7.88518H2.95556V7.88587H4.60556ZM4.60556 7.88656V7.88587H2.95556V7.88656H4.60556ZM4.60556 7.88724V7.88656H2.95556V7.88724H4.60556ZM4.60556 7.88793V7.88724H2.95556V7.88793H4.60556ZM4.60556 7.88861V7.88793H2.95556V7.88861H4.60556ZM4.60556 7.88929V7.88861H2.95556V7.88929H4.60556ZM4.60556 7.88997V7.88929H2.95556V7.88997H4.60556ZM4.60556 7.89065V7.88997H2.95556V7.89065H4.60556ZM4.60556 7.89132V7.89065H2.95556V7.89132H4.60556ZM4.60556 7.89199V7.89132H2.95556V7.89199H4.60556ZM4.60556 7.89266V7.89199H2.95556V7.89266H4.60556ZM4.60556 7.89333V7.89266H2.95556V7.89333H4.60556ZM4.60556 7.89399V7.89333H2.95556V7.89399H4.60556ZM4.60556 7.89465V7.89399H2.95556V7.89465H4.60556ZM4.60556 7.89531V7.89465H2.95556V7.89531H4.60556ZM4.60556 7.89596V7.89531H2.95556V7.89596H4.60556ZM4.60556 7.89661V7.89596H2.95556V7.89661H4.60556ZM4.60556 7.89726V7.89661H2.95556V7.89726H4.60556ZM4.60556 7.89791V7.89726H2.95556V7.89791H4.60556ZM4.60556 7.89855V7.89791H2.95556V7.89855H4.60556ZM4.60556 7.89918V7.89855H2.95556V7.89918H4.60556ZM4.60556 7.89981V7.89918H2.95556V7.89981H4.60556ZM4.60556 7.90044V7.89981H2.95556V7.90044H4.60556ZM4.60556 7.90107V7.90044H2.95556V7.90107H4.60556ZM4.60556 7.90169V7.90107H2.95556V7.90169H4.60556ZM4.60556 7.9023V7.90169H2.95556V7.9023H4.60556ZM4.60556 7.90291V7.9023H2.95556V7.90291H4.60556ZM4.60556 7.90352V7.90291H2.95556V7.90352H4.60556ZM4.60556 7.90412V7.90352H2.95556V7.90412H4.60556ZM4.60556 7.90471V7.90412H2.95556V7.90471H4.60556ZM4.60556 7.9053V7.90471H2.95556V7.9053H4.60556ZM4.60556 7.90589V7.9053H2.95556V7.90589H4.60556ZM4.60556 7.90646V7.90589H2.95556V7.90646H4.60556ZM4.60556 7.90704V7.90646H2.95556V7.90704H4.60556ZM4.60556 7.90761V7.90704H2.95556V7.90761H4.60556ZM4.60556 7.90817V7.90761H2.95556V7.90817H4.60556ZM4.60556 7.90872V7.90817H2.95556V7.90872H4.60556ZM4.60556 7.90927V7.90872H2.95556V7.90927H4.60556ZM4.60556 7.90982V7.90927H2.95556V7.90982H4.60556ZM4.60556 7.91035V7.90982H2.95556V7.91035H4.60556ZM4.60556 7.91088V7.91035H2.95556V7.91088H4.60556ZM4.60556 7.91141V7.91088H2.95556V7.91141H4.60556ZM4.60556 7.91192V7.91141H2.95556V7.91192H4.60556ZM4.60556 7.91243V7.91192H2.95556V7.91243H4.60556ZM4.60556 7.91294V7.91243H2.95556V7.91294H4.60556ZM4.60556 7.91343V7.91294H2.95556V7.91343H4.60556ZM4.60556 7.91392V7.91343H2.95556V7.91392H4.60556ZM4.60556 7.9144V7.91392H2.95556V7.9144H4.60556ZM4.60556 7.91487V7.9144H2.95556V7.91487H4.60556ZM4.60556 7.91534V7.91487H2.95556V7.91534H4.60556ZM4.60556 7.9158V7.91534H2.95556V7.9158H4.60556ZM4.60556 7.91625V7.9158H2.95556V7.91625H4.60556ZM4.60556 7.91669V7.91625H2.95556V7.91669H4.60556ZM4.60556 7.91712V7.91669H2.95556V7.91712H4.60556ZM4.60556 7.91755V7.91712H2.95556V7.91755H4.60556ZM4.60556 7.91796V7.91755H2.95556V7.91796H4.60556ZM4.60556 7.91837V7.91796H2.95556V7.91837H4.60556ZM4.60556 7.91877V7.91837H2.95556V7.91877H4.60556ZM4.60556 7.91916V7.91877H2.95556V7.91916H4.60556ZM4.60556 7.91954V7.91916H2.95556V7.91954H4.60556ZM4.60556 7.91991V7.91954H2.95556V7.91991H4.60556ZM4.60556 7.92027V7.91991H2.95556V7.92027H4.60556ZM4.60556 7.92062V7.92027H2.95556V7.92062H4.60556ZM4.60556 7.92097V7.92062H2.95556V7.92097H4.60556ZM4.60556 7.9213V7.92097H2.95556V7.9213H4.60556ZM4.60556 7.92162V7.9213H2.95556V7.92162H4.60556ZM4.60556 7.92194V7.92162H2.95556V7.92194H4.60556ZM4.60556 7.92224V7.92194H2.95556V7.92224H4.60556ZM4.60556 7.92253V7.92224H2.95556V7.92253H4.60556ZM4.60556 7.92282V7.92253H2.95556V7.92282H4.60556ZM4.60556 7.92309V7.92282H2.95556V7.92309H4.60556ZM4.60556 7.92335V7.92309H2.95556V7.92335H4.60556ZM4.60556 7.9236V7.92335H2.95556V7.9236H4.60556ZM4.60556 7.92384V7.9236H2.95556V7.92384H4.60556ZM4.60556 7.92407V7.92384H2.95556V7.92407H4.60556ZM4.60556 7.92429V7.92407H2.95556V7.92429H4.60556ZM4.60556 7.92449V7.92429H2.95556V7.92449H4.60556ZM4.60556 7.92469V7.92449H2.95556V7.92469H4.60556ZM4.60556 7.92487V7.92469H2.95556V7.92487H4.60556ZM4.60556 7.92504V7.92487H2.95556V7.92504H4.60556ZM4.60556 7.9252V7.92504H2.95556V7.9252H4.60556ZM4.60556 7.92535V7.9252H2.95556V7.92535H4.60556ZM4.60556 7.92548V7.92535H2.95556V7.92548H4.60556ZM4.60556 7.92561V7.92548H2.95556V7.92561H4.60556ZM4.60556 7.92572V7.92561H2.95556V7.92572H4.60556ZM4.60556 7.92582V7.92572H2.95556V7.92582H4.60556ZM4.60556 7.9259V7.92582H2.95556V7.9259H4.60556ZM4.60556 7.92597V7.9259H2.95556V7.92597H4.60556ZM4.60556 7.92603V7.92597H2.95556V7.92603H4.60556ZM4.60556 7.92608V7.92603H2.95556V7.92608H4.60556ZM4.60556 7.92611V7.92608H2.95556V7.92611H4.60556ZM4.60556 7.92614V7.92611H2.95556V7.92614H4.60556ZM4.60556 7.95512V7.92614H2.95556V7.95512H4.60556ZM4.60556 7.99803V7.95512H2.95556V7.99803H4.60556ZM4.60556 8.00998V7.99803H2.95556V8.00998H4.60556ZM4.60556 8.01304V8.00998H2.95556V8.01304H4.60556ZM4.60556 8.01614V8.01304H2.95556V8.01614H4.60556ZM4.60556 8.01927V8.01614H2.95556V8.01927H4.60556ZM4.60556 8.02243V8.01927H2.95556V8.02243H4.60556ZM4.60556 8.02562V8.02243H2.95556V8.02562H4.60556ZM4.60556 8.02884V8.02562H2.95556V8.02884H4.60556ZM4.60556 8.0321V8.02884H2.95556V8.0321H4.60556ZM4.60556 8.03539V8.0321H2.95556V8.03539H4.60556ZM4.60556 8.03871V8.03539H2.95556V8.03871H4.60556ZM4.60556 8.04206V8.03871H2.95556V8.04206H4.60556ZM4.60556 8.04545V8.04206H2.95556V8.04545H4.60556ZM4.60556 8.04887V8.04545H2.95556V8.04887H4.60556ZM4.60556 8.05233V8.04887H2.95556V8.05233H4.60556ZM4.60556 8.05581V8.05233H2.95556V8.05581H4.60556ZM4.60556 8.05933V8.05581H2.95556V8.05933H4.60556ZM4.60556 8.06289V8.05933H2.95556V8.06289H4.60556ZM4.60556 8.06647V8.06289H2.95556V8.06647H4.60556ZM4.60556 8.07009V8.06647H2.95556V8.07009H4.60556ZM4.60556 8.07375V8.07009H2.95556V8.07375H4.60556ZM4.60556 8.07744V8.07375H2.95556V8.07744H4.60556ZM4.60556 8.08116V8.07744H2.95556V8.08116H4.60556ZM4.60556 8.08492V8.08116H2.95556V8.08492H4.60556ZM4.60556 8.08871V8.08492H2.95556V8.08871H4.60556ZM4.60556 8.09254V8.08871H2.95556V8.09254H4.60556ZM4.60556 8.0964V8.09254H2.95556V8.0964H4.60556ZM4.60556 8.10029V8.0964H2.95556V8.10029H4.60556ZM4.60556 8.10423V8.10029H2.95556V8.10423H4.60556ZM4.60556 8.10819V8.10423H2.95556V8.10819H4.60556ZM4.60556 8.11219V8.10819H2.95556V8.11219H4.60556ZM4.60556 8.11623V8.11219H2.95556V8.11623H4.60556ZM4.60556 8.1203V8.11623H2.95556V8.1203H4.60556ZM4.60556 8.12441V8.1203H2.95556V8.12441H4.60556ZM4.60556 8.12855V8.12441H2.95556V8.12855H4.60556ZM4.60556 8.13273V8.12855H2.95556V8.13273H4.60556ZM4.60556 8.13695V8.13273H2.95556V8.13695H4.60556ZM4.60556 8.1412V8.13695H2.95556V8.1412H4.60556ZM4.60556 8.14549V8.1412H2.95556V8.14549H4.60556ZM4.60556 8.14981V8.14549H2.95556V8.14981H4.60556ZM4.60556 8.15417V8.14981H2.95556V8.15417H4.60556ZM4.60556 8.15857V8.15417H2.95556V8.15857H4.60556ZM4.60556 8.16301V8.15857H2.95556V8.16301H4.60556ZM4.60556 8.16748V8.16301H2.95556V8.16748H4.60556ZM4.60556 8.17199V8.16748H2.95556V8.17199H4.60556ZM4.60556 8.17653V8.17199H2.95556V8.17653H4.60556ZM4.60556 8.18111V8.17653H2.95556V8.18111H4.60556ZM4.60556 8.18573V8.18111H2.95556V8.18573H4.60556ZM4.60556 8.19039V8.18573H2.95556V8.19039H4.60556ZM4.60556 8.19509V8.19039H2.95556V8.19509H4.60556ZM4.60556 8.19982V8.19509H2.95556V8.19982H4.60556ZM4.60556 8.20459V8.19982H2.95556V8.20459H4.60556ZM4.60556 8.2094V8.20459H2.95556V8.2094H4.60556ZM4.60556 8.21425V8.2094H2.95556V8.21425H4.60556ZM4.60556 8.21914V8.21425H2.95556V8.21914H4.60556ZM4.60556 8.22406V8.21914H2.95556V8.22406H4.60556ZM4.60556 8.22903V8.22406H2.95556V8.22903H4.60556ZM4.60556 8.23403V8.22903H2.95556V8.23403H4.60556ZM4.60556 8.23907V8.23403H2.95556V8.23907H4.60556ZM4.60556 8.24415V8.23907H2.95556V8.24415H4.60556ZM4.60556 8.24927V8.24415H2.95556V8.24927H4.60556ZM4.60556 8.25443V8.24927H2.95556V8.25443H4.60556ZM4.60556 8.25963V8.25443H2.95556V8.25963H4.60556ZM4.60556 8.26487V8.25963H2.95556V8.26487H4.60556ZM4.60556 8.27015V8.26487H2.95556V8.27015H4.60556ZM4.60556 8.27547V8.27015H2.95556V8.27547H4.60556ZM4.60556 8.28083V8.27547H2.95556V8.28083H4.60556ZM4.60556 8.28622V8.28083H2.95556V8.28622H4.60556ZM4.60556 8.29166V8.28622H2.95556V8.29166H4.60556ZM4.60556 8.29714V8.29166H2.95556V8.29714H4.60556ZM4.60556 8.30266V8.29714H2.95556V8.30266H4.60556ZM4.60556 8.30822V8.30266H2.95556V8.30822H4.60556ZM4.60556 8.31382V8.30822H2.95556V8.31382H4.60556ZM4.60556 8.31946V8.31382H2.95556V8.31946H4.60556ZM4.60556 8.32515V8.31946H2.95556V8.32515H4.60556ZM4.60556 8.33087V8.32515H2.95556V8.33087H4.60556ZM4.60556 8.33664V8.33087H2.95556V8.33664H4.60556ZM4.60556 8.34244V8.33664H2.95556V8.34244H4.60556ZM4.60556 8.34829V8.34244H2.95556V8.34829H4.60556ZM4.60556 8.35418V8.34829H2.95556V8.35418H4.60556ZM4.60556 8.36011V8.35418H2.95556V8.36011H4.60556ZM4.60556 8.36609V8.36011H2.95556V8.36609H4.60556ZM4.60556 8.37211V8.36609H2.95556V8.37211H4.60556ZM4.60556 8.37816V8.37211H2.95556V8.37816H4.60556ZM4.60556 8.38426V8.37816H2.95556V8.38426H4.60556ZM4.60556 8.39041V8.38426H2.95556V8.39041H4.60556ZM4.60556 8.39659V8.39041H2.95556V8.39659H4.60556ZM4.60556 8.40282V8.39659H2.95556V8.40282H4.60556ZM4.60556 8.4091V8.40282H2.95556V8.4091H4.60556ZM4.60556 8.41541V8.4091H2.95556V8.41541H4.60556ZM4.60556 8.42177V8.41541H2.95556V8.42177H4.60556ZM4.60556 8.42817V8.42177H2.95556V8.42817H4.60556ZM4.60556 8.43461V8.42817H2.95556V8.43461H4.60556ZM4.60556 8.4411V8.43461H2.95556V8.4411H4.60556ZM4.60556 8.44764V8.4411H2.95556V8.44764H4.60556ZM4.60556 8.45421V8.44764H2.95556V8.45421H4.60556ZM4.60556 8.46083V8.45421H2.95556V8.46083H4.60556ZM4.60556 8.4675V8.46083H2.95556V8.4675H4.60556ZM4.60556 8.4742V8.4675H2.95556V8.4742H4.60556ZM4.60556 8.48096V8.4742H2.95556V8.48096H4.60556ZM4.60556 8.48775V8.48096H2.95556V8.48775H4.60556ZM4.60556 8.4946V8.48775H2.95556V8.4946H4.60556ZM4.60556 8.50148V8.4946H2.95556V8.50148H4.60556ZM4.60556 8.50842V8.50148H2.95556V8.50842H4.60556ZM4.60556 8.51539V8.50842H2.95556V8.51539H4.60556ZM4.60556 8.52241V8.51539H2.95556V8.52241H4.60556ZM4.60556 8.52948V8.52241H2.95556V8.52948H4.60556ZM4.60556 8.53659V8.52948H2.95556V8.53659H4.60556ZM4.60556 8.54375V8.53659H2.95556V8.54375H4.60556ZM4.60556 8.55096V8.54375H2.95556V8.55096H4.60556ZM4.60556 8.55821V8.55096H2.95556V8.55821H4.60556ZM4.60556 8.5655V8.55821H2.95556V8.5655H4.60556ZM4.60556 8.57284V8.5655H2.95556V8.57284H4.60556ZM4.60556 8.58023V8.57284H2.95556V8.58023H4.60556ZM4.60556 8.58767V8.58023H2.95556V8.58767H4.60556ZM4.60556 8.59515V8.58767H2.95556V8.59515H4.60556ZM4.60556 8.60268V8.59515H2.95556V8.60268H4.60556ZM4.60556 8.61025V8.60268H2.95556V8.61025H4.60556ZM4.60556 8.61787V8.61025H2.95556V8.61787H4.60556ZM4.60556 8.62554V8.61787H2.95556V8.62554H4.60556ZM4.60556 8.63326V8.62554H2.95556V8.63326H4.60556ZM4.60556 8.64102V8.63326H2.95556V8.64102H4.60556ZM4.60556 8.64883V8.64102H2.95556V8.64883H4.60556ZM4.60556 8.65669V8.64883H2.95556V8.65669H4.60556ZM4.60556 8.66459V8.65669H2.95556V8.66459H4.60556ZM4.60556 8.67255V8.66459H2.95556V8.67255H4.60556ZM4.60556 8.68055V8.67255H2.95556V8.68055H4.60556ZM4.60556 8.6886V8.68055H2.95556V8.6886H4.60556ZM4.60556 8.6967V8.6886H2.95556V8.6967H4.60556ZM4.60556 8.70484V8.6967H2.95556V8.70484H4.60556ZM4.60556 8.71304V8.70484H2.95556V8.71304H4.60556ZM4.60556 8.72128V8.71304H2.95556V8.72128H4.60556ZM4.60556 8.72957V8.72128H2.95556V8.72957H4.60556ZM4.60556 8.73791V8.72957H2.95556V8.73791H4.60556ZM4.60556 8.7463V8.73791H2.95556V8.7463H4.60556ZM4.60556 8.75474V8.7463H2.95556V8.75474H4.60556ZM4.60556 8.76323V8.75474H2.95556V8.76323H4.60556ZM4.60556 8.77177V8.76323H2.95556V8.77177H4.60556ZM4.60556 8.78036V8.77177H2.95556V8.78036H4.60556ZM4.60556 8.78899V8.78036H2.95556V8.78899H4.60556ZM4.60556 8.79768V8.78899H2.95556V8.79768H4.60556ZM4.60556 8.80642V8.79768H2.95556V8.80642H4.60556ZM4.60556 8.81521V8.80642H2.95556V8.81521H4.60556ZM4.60556 8.82404V8.81521H2.95556V8.82404H4.60556ZM4.60556 8.83293V8.82404H2.95556V8.83293H4.60556ZM4.60556 8.84187V8.83293H2.95556V8.84187H4.60556ZM4.60556 8.85086V8.84187H2.95556V8.85086H4.60556ZM4.60556 8.8599V8.85086H2.95556V8.8599H4.60556ZM4.60556 8.86899V8.8599H2.95556V8.86899H4.60556ZM4.60556 8.87813V8.86899H2.95556V8.87813H4.60556ZM4.60556 8.88732V8.87813H2.95556V8.88732H4.60556ZM4.60556 8.89657V8.88732H2.95556V8.89657H4.60556ZM4.60556 8.90586V8.89657H2.95556V8.90586H4.60556ZM4.60556 8.91521V8.90586H2.95556V8.91521H4.60556ZM4.60556 8.92461V8.91521H2.95556V8.92461H4.60556ZM4.60556 8.93406V8.92461H2.95556V8.93406H4.60556ZM4.60556 8.94356V8.93406H2.95556V8.94356H4.60556ZM4.60556 8.95311V8.94356H2.95556V8.95311H4.60556ZM4.60556 8.96272V8.95311H2.95556V8.96272H4.60556ZM4.60556 8.97238V8.96272H2.95556V8.97238H4.60556ZM4.60556 8.98209V8.97238H2.95556V8.98209H4.60556ZM4.60556 8.99185V8.98209H2.95556V8.99185H4.60556ZM4.60556 9.00167V8.99185H2.95556V9.00167H4.60556ZM4.60556 9.01154V9.00167H2.95556V9.01154H4.60556ZM4.60556 9.02146V9.01154H2.95556V9.02146H4.60556ZM4.60556 9.03144V9.02146H2.95556V9.03144H4.60556ZM4.60556 9.04147V9.03144H2.95556V9.04147H4.60556ZM4.60556 9.05155V9.04147H2.95556V9.05155H4.60556ZM4.60556 9.06169V9.05155H2.95556V9.06169H4.60556ZM4.60556 9.07188V9.06169H2.95556V9.07188H4.60556ZM4.60556 9.08212V9.07188H2.95556V9.08212H4.60556ZM4.60556 9.09242V9.08212H2.95556V9.09242H4.60556ZM4.60556 9.10277V9.09242H2.95556V9.10277H4.60556ZM4.60556 9.11318V9.10277H2.95556V9.11318H4.60556ZM7.49359 7.30122C7.31029 7.45921 6.8597 7.7979 6.30198 7.92494C5.80095 8.03908 5.16122 8.0004 4.44378 7.32531L3.31306 8.52697C4.45921 9.60546 5.67112 9.76092 6.66846 9.53373C7.60911 9.31945 8.30362 8.78135 8.57081 8.55106L7.49359 7.30122ZM5.95856 8.75114H8.0322V7.10114H5.95856V8.75114ZM3.87842 8.75114H5.95856V7.10114H3.87842V8.75114Z" fill="white"/>
</svg>
