<svg width="17" height="17" viewBox="0 0 17 17" fill="none" xmlns="http://www.w3.org/2000/svg">
<path d="M14.5213 3.26466C14.1335 2.79546 13.6465 2.41811 13.0953 2.15979C12.5441 1.90147 11.9425 1.76861 11.3338 1.77079C10.2923 1.73925 9.27833 2.10809 8.50049 2.80141C7.72265 2.10809 6.70867 1.73925 5.66716 1.77079C5.05845 1.76861 4.45683 1.90147 3.90565 2.15979C3.35447 2.41811 2.86744 2.79546 2.47966 3.26466C1.80462 4.0835 1.09841 5.56604 1.56662 7.98216C2.31391 11.8405 7.91753 15.0067 8.15412 15.1363C8.25958 15.1951 8.37832 15.226 8.49907 15.226C8.61982 15.226 8.73857 15.1951 8.84403 15.1363C9.08203 15.0039 14.6857 11.8376 15.4315 7.98216C15.9026 5.56604 15.1964 4.0835 14.5213 3.26466ZM14.0439 7.713C13.5155 10.4408 9.67491 12.978 8.50049 13.6991C6.84582 12.7004 3.44157 10.1929 2.96062 7.713C2.59724 5.83875 3.09449 4.75004 3.57616 4.16637C3.83088 3.85903 4.15046 3.61188 4.51198 3.44263C4.87349 3.27338 5.26799 3.18624 5.66716 3.18746C6.0935 3.15548 6.52085 3.23453 6.90754 3.41689C7.29424 3.59925 7.62708 3.8787 7.87362 4.228C7.93441 4.33987 8.0241 4.43338 8.13333 4.49881C8.24255 4.56423 8.36733 4.59915 8.49465 4.59995C8.62197 4.60074 8.74717 4.56738 8.85721 4.50333C8.96725 4.43928 9.0581 4.34689 9.12028 4.23579C9.36634 3.88377 9.69989 3.60196 10.0881 3.41812C10.4762 3.23429 10.9056 3.15479 11.3338 3.18746C11.7338 3.18551 12.1293 3.2723 12.4917 3.44157C12.8542 3.61084 13.1745 3.85839 13.4298 4.16637C13.91 4.75004 14.4073 5.83875 14.0439 7.713Z" fill="#FFBD5A"/>
</svg>
