<svg width="18" height="17" viewBox="0 0 18 17" fill="none" xmlns="http://www.w3.org/2000/svg">
<path d="M14.2505 6.37504C14.8438 6.37504 15.4239 6.20887 15.9172 5.89754C16.4105 5.58621 16.7951 5.1437 17.0221 4.62598C17.2492 4.10825 17.3086 3.53857 17.1928 2.98895C17.0771 2.43934 16.7914 1.93449 16.3718 1.53824C15.9523 1.14199 15.4177 0.872142 14.8358 0.762817C14.2538 0.653492 13.6506 0.709602 13.1024 0.92405C12.5543 1.1385 12.0857 1.50165 11.7561 1.96759C11.4264 2.43353 11.2505 2.98133 11.2505 3.54171C11.2545 3.80892 11.2992 4.0742 11.3832 4.32938L6.04624 6.69804C5.65324 6.24769 5.12259 5.92294 4.5268 5.76817C3.93101 5.61339 3.29914 5.63615 2.71756 5.83333C2.13598 6.0305 1.63306 6.39248 1.27752 6.86979C0.921979 7.3471 0.731171 7.91645 0.731171 8.50004C0.731171 9.08363 0.921979 9.65298 1.27752 10.1303C1.63306 10.6076 2.13598 10.9696 2.71756 11.1668C3.29914 11.3639 3.93101 11.3867 4.5268 11.2319C5.12259 11.0771 5.65324 10.7524 6.04624 10.302L11.3832 12.6707C11.2992 12.9259 11.2545 13.1912 11.2505 13.4584C11.2488 14.115 11.488 14.7519 11.9274 15.2607C12.3668 15.7695 12.9794 16.1188 13.6607 16.2492C14.3421 16.3796 15.0503 16.283 15.6648 15.9759C16.2793 15.6687 16.7621 15.17 17.0312 14.5646C17.3002 13.9591 17.3388 13.2843 17.1405 12.655C16.9421 12.0257 16.5191 11.4807 15.9432 11.1128C15.3674 10.7448 14.6744 10.5767 13.9821 10.6369C13.2898 10.6972 12.641 10.9821 12.146 11.4432L6.69424 9.02421C6.76924 8.67859 6.76924 8.3222 6.69424 7.97658L12.146 5.55692C12.706 6.08081 13.4623 6.37481 14.2505 6.37504ZM14.2505 2.12504C14.5472 2.12504 14.8372 2.20813 15.0838 2.36379C15.3305 2.51946 15.5228 2.74071 15.6363 2.99957C15.7498 3.25844 15.7795 3.54328 15.7217 3.81809C15.6638 4.09289 15.5209 4.34532 15.3111 4.54344C15.1014 4.74157 14.8341 4.87649 14.5431 4.93115C14.2522 4.98582 13.9506 4.95776 13.6765 4.85054C13.4024 4.74331 13.1681 4.56174 13.0033 4.32877C12.8385 4.0958 12.7505 3.8219 12.7505 3.54171C12.7505 3.16599 12.9085 2.80565 13.1898 2.53997C13.4711 2.2743 13.8527 2.12504 14.2505 2.12504V2.12504ZM3.75049 9.91671C3.45382 9.91671 3.16381 9.83362 2.91713 9.67796C2.67046 9.52229 2.4782 9.30104 2.36467 9.04218C2.25114 8.78331 2.22143 8.49847 2.27931 8.22366C2.33719 7.94886 2.48005 7.69643 2.68983 7.49831C2.89961 7.30018 3.16688 7.16526 3.45785 7.1106C3.74882 7.05593 4.05042 7.08399 4.32451 7.19121C4.5986 7.29844 4.83287 7.48001 4.99769 7.71298C5.16251 7.94595 5.25049 8.21985 5.25049 8.50004C5.25049 8.87577 5.09245 9.2361 4.81115 9.50178C4.52984 9.76745 4.14831 9.91671 3.75049 9.91671ZM14.2505 12.0417C14.5472 12.0417 14.8372 12.1248 15.0838 12.2805C15.3305 12.4361 15.5228 12.6574 15.6363 12.9162C15.7498 13.1751 15.7795 13.4599 15.7217 13.7348C15.6638 14.0096 15.5209 14.262 15.3111 14.4601C15.1014 14.6582 14.8341 14.7932 14.5431 14.8478C14.2522 14.9025 13.9506 14.8744 13.6765 14.7672C13.4024 14.66 13.1681 14.4784 13.0033 14.2454C12.8385 14.0125 12.7505 13.7386 12.7505 13.4584C12.7505 13.0827 12.9085 12.7223 13.1898 12.4566C13.4711 12.191 13.8527 12.0417 14.2505 12.0417V12.0417Z" fill="white"/>
</svg>
